<?xml version="1.0" encoding="UTF-8" standalone="no"?>
<svg
   xmlns:dc="http://purl.org/dc/elements/1.1/"
   xmlns:cc="http://creativecommons.org/ns#"
   xmlns:rdf="http://www.w3.org/1999/02/22-rdf-syntax-ns#"
   xmlns:svg="http://www.w3.org/2000/svg"
   xmlns="http://www.w3.org/2000/svg"
   version="1.1"
   id="svg2"
   viewBox="0 0 250.00001 250"
   height="70.555557mm"
   width="70.555557mm">
  <defs
     id="defs4" />
  <metadata
     id="metadata7">
    <rdf:RDF>
      <cc:Work
         rdf:about="">
        <dc:format>image/svg+xml</dc:format>
        <dc:type
           rdf:resource="http://purl.org/dc/dcmitype/StillImage" />
        <dc:title></dc:title>
      </cc:Work>
    </rdf:RDF>
  </metadata>
  <g
     transform="translate(113.71907,-383.49852)"
     id="layer1">
    <g
       transform="translate(116.33078,419.55785)"
       id="g4220">
      <g
         id="Travel_Planning" />
      <g
         id="Globe_1_" />
      <g
         id="Map" />
      <g
         id="Flight_Date" />
      <g
         id="Alarm_Clock" />
      <g
         id="Small_Suitcase" />
      <g
         id="Backpack" />
      <g
         id="Large_Suitcase" />
      <g
         id="Toiletries" />
      <g
         id="Camera" />
      <g
         id="Phone" />
      <g
         id="Laptop" />
      <g
         id="Passport" />
      <g
         id="Taxi" />
      <g
         id="Signs" />
      <g
         id="Airport" />
      <g
         id="Wind_Sock" />
      <g
         id="Check-In" />
      <g
         id="Ticket" />
      <g
         id="Wallet" />
      <g
         id="Tag" />
      <g
         id="Escalator" />
      <g
         id="Body_Scanner" />
      <g
         id="Walking_with_Suitcase" />
      <g
         id="Gate_Number" />
      <g
         id="Seats" />
      <g
         id="Seat_Belt" />
      <g
         id="Take_Off" />
      <g
         id="Plane_Window" />
      <g
         id="International_Travel" />
      <g
         id="Meal" />
      <g
         id="Landing" />
      <g
         id="Shuttle_Bus" />
      <g
         id="Hotel" />
      <g
         id="Hotel_Check-In" />
      <g
         id="Valet_1_" />
      <g
         id="Baggage_Trolley" />
      <g
         id="Door_Hanger" />
      <g
         id="Hotel_Room">
        <g
           id="XMLID_646_">
          <g
             id="g4288">
            <g
               id="g4279"
               transform="matrix(3.1944591,0,0,3.1944591,-186.08088,-236.24658)">
              <g
                 transform="matrix(0.31304204,0,0,0.31304204,22.002437,86.723126)"
                 id="g4338">
                <g
                   id="g4322" />
                <g
                   id="g4351">
                  <g
                     id="g4347"
                     transform="matrix(1.5261244,0,0,1.5261244,-14.405052,-33.847362)">
                    <g
                       id="g4363">
                      <g
                         id="g4358">
                        <circle
                           style="fill:#d64444;fill-opacity:1;stroke:none;stroke-opacity:1"
                           id="path4345"
                           cx="10.745147"
                           cy="48.153759"
                           r="125"
                           transform="matrix(0.65525462,0,0,0.65525462,9.4389774,22.178639)" />
                        <path
                           style="fill:#6d3a27;fill-opacity:1;stroke:#000000;stroke-width:1.31050924;stroke-miterlimit:4;stroke-dasharray:none;stroke-opacity:1"
                           d="m 20.017754,107.37309 c 0,2.211 -1.789,4 -4,4 l 0,0 c -2.211,0 -4,-1.789 -4,-4 l 0,-55.999997 c 0,-2.211 1.789,-4 4,-4 l 0,0 c 2.21,0 4,1.789 4,4 l 0,55.999997 z"
                           id="path4328" />
                        <path
                           style="fill:#64a419;fill-opacity:1;stroke:#000000;stroke-width:1.31050924;stroke-miterlimit:4;stroke-dasharray:none;stroke-opacity:1"
                           d="m 64.017754,87.371093 -32,0 c -2.211,0 -4,-1.797 -4,-4 0,-2.219 1.789,-4 4,-4 l 22.344,0 -17.172,-17.187 c -1.141,-1.141 -1.484,-2.883 -0.867,-4.367 0.617,-1.5 2.078,-2.469 3.695,-2.469 l 6.344,0 -17.172,-17.188 c -1.141,-1.141 -1.484,-2.875 -0.867,-4.359 0.617,-1.508 2.078,-2.477 3.695,-2.477 l 7.68,0 -23.68,-29.6169999 -23.6800002,29.6169999 7.67999995,0 c 1.61700005,0 3.07800005,0.969 3.69500005,2.477 0.617,1.484 0.273,3.219 -0.867,4.359 l -17.1709998,17.188 6.3429998,0 c 1.617,0 3.078,0.969 3.695,2.469 0.617,1.484 0.273,3.227 -0.867,4.367 l -17.1719998,17.187 22.34399975,0 c 2.21100005,0 4.00000005,1.781 4.00000005,4 0,2.203 -1.789,4 -4.00000005,4 l -31.99999975,0 c -1.617,0 -3.078,-0.984 -3.695,-2.469 -0.617,-1.5 -0.273,-3.219 0.867,-4.359 l 17.172,-17.188 -6.344,0 c -1.617,0 -3.078,-0.984 -3.695,-2.469 -0.617,-1.508 -0.273,-3.227 0.867,-4.367 l 17.1719998,-17.188 -6.3439998,0 c -1.539,0 -2.938,-0.891 -3.602,-2.266 -0.672,-1.391 -0.484,-3.031 0.477,-4.242 l 32,-40.0309999 c 1.516,-1.891 4.734,-1.891 6.25,0 l 32,40.0309999 c 0.961,1.211 1.148,2.852 0.477,4.242 -0.664,1.375 -2.063,2.266 -3.602,2.266 l -6.344,0 17.172,17.188 c 1.141,1.141 1.484,2.859 0.867,4.367 -0.617,1.484 -2.078,2.469 -3.695,2.469 l -6.344,0 17.172,17.188 c 1.141,1.141 1.484,2.859 0.867,4.359 -0.617,1.485 -2.078,2.469 -3.695,2.469 z"
                           id="path4330" />
                      </g>
                    </g>
                  </g>
                </g>
              </g>
            </g>
          </g>
        </g>
      </g>
      <g
         id="Shower" />
    </g>
  </g>
</svg>
