<?xml version="1.0" encoding="UTF-8" standalone="no"?>
<svg
   xmlns:dc="http://purl.org/dc/elements/1.1/"
   xmlns:cc="http://creativecommons.org/ns#"
   xmlns:rdf="http://www.w3.org/1999/02/22-rdf-syntax-ns#"
   xmlns:svg="http://www.w3.org/2000/svg"
   xmlns="http://www.w3.org/2000/svg"
   version="1.1"
   id="svg2"
   viewBox="0 0 250.00001 250"
   height="70.555557mm"
   width="70.555557mm">
  <defs
     id="defs4" />
  <metadata
     id="metadata7">
    <rdf:RDF>
      <cc:Work
         rdf:about="">
        <dc:format>image/svg+xml</dc:format>
        <dc:type
           rdf:resource="http://purl.org/dc/dcmitype/StillImage" />
        <dc:title></dc:title>
      </cc:Work>
    </rdf:RDF>
  </metadata>
  <g
     transform="translate(-188.82161,-290.05941)"
     id="layer1">
    <g
       transform="translate(116.33078,419.55785)"
       id="g4220">
      <g
         id="Travel_Planning" />
      <g
         id="Globe_1_" />
      <g
         id="Map" />
      <g
         id="Flight_Date" />
      <g
         id="Alarm_Clock" />
      <g
         id="Small_Suitcase" />
      <g
         id="Backpack" />
      <g
         id="Large_Suitcase" />
      <g
         id="Toiletries" />
      <g
         id="Camera" />
      <g
         id="Phone" />
      <g
         id="Laptop" />
      <g
         id="Passport" />
      <g
         id="Taxi" />
      <g
         id="Signs" />
      <g
         id="Airport" />
      <g
         id="Wind_Sock" />
      <g
         id="Check-In" />
      <g
         id="Ticket" />
      <g
         id="Wallet" />
      <g
         id="Tag" />
      <g
         id="Escalator" />
      <g
         id="Body_Scanner" />
      <g
         id="Walking_with_Suitcase" />
      <g
         id="Gate_Number" />
      <g
         id="Seats" />
      <g
         id="Seat_Belt" />
      <g
         id="Take_Off" />
      <g
         id="Plane_Window" />
      <g
         id="International_Travel" />
      <g
         id="Meal" />
      <g
         id="Landing" />
      <g
         id="Shuttle_Bus" />
      <g
         id="Hotel" />
      <g
         id="Hotel_Check-In" />
      <g
         id="Valet_1_" />
      <g
         id="Baggage_Trolley" />
      <g
         id="Door_Hanger" />
      <g
         id="Hotel_Room">
        <g
           id="XMLID_646_">
          <g
             id="g4288">
            <g
               id="g4279"
               transform="matrix(3.1944591,0,0,3.1944591,-186.08088,-236.24658)">
              <g
                 id="g4300">
                <circle
                   transform="matrix(0.31304206,0,0,0.31304206,58.251139,73.955112)"
                   r="125.00001"
                   cy="-4.4984369"
                   cx="197.49083"
                   id="path4277"
                   style="fill:#53afb3;fill-opacity:1;stroke:none;stroke-opacity:1" />
                <path
                   d="m 132,100 -24,0 c -1.105,0 -2,-0.895 -2,-2 l 0,-16 c 0,-1.1 0.9,-2 2,-2 l 24,0 c 1.1,0 2,0.9 2,2 l 0,16 c 0,1.105 -0.895,2 -2,2 z"
                   id="XMLID_1323_"
                   style="opacity:0.1" />
                <path
                   d="m 132,100 -24,0 c -1.105,0 -2,-0.895 -2,-2 l 0,-16 c 0,-1.1 0.9,-2 2,-2 l 24,0 c 1.1,0 2,0.9 2,2 l 0,16 c 0,1.105 -0.895,2 -2,2 z"
                   stroke-miterlimit="10"
                   id="XMLID_1320_"
                   style="fill:#603e27;fill-opacity:1;stroke:#000000;stroke-width:4;stroke-linecap:round;stroke-linejoin:round;stroke-miterlimit:10" />
                <line
                   y2="100"
                   x2="110"
                   y1="104"
                   x1="110"
                   stroke-miterlimit="10"
                   id="XMLID_1316_"
                   style="fill:none;stroke:#000000;stroke-width:4;stroke-linecap:round;stroke-linejoin:round;stroke-miterlimit:10" />
                <line
                   y2="100"
                   x2="130"
                   y1="104"
                   x1="130"
                   stroke-miterlimit="10"
                   id="XMLID_1315_"
                   style="fill:none;stroke:#000000;stroke-width:4;stroke-linecap:round;stroke-linejoin:round;stroke-miterlimit:10" />
                <line
                   y2="90"
                   x2="123"
                   y1="90"
                   x1="117"
                   stroke-miterlimit="10"
                   id="XMLID_1312_"
                   style="fill:none;stroke:#000000;stroke-width:4;stroke-linecap:round;stroke-linejoin:round;stroke-miterlimit:10" />
                <path
                   d="m 120,60 c -6.999,0 -6.999,4.545 -6.999,10 0,5.455 4.484,10 6.999,10 2.515,0 6.999,-4.545 6.999,-10 0,-5.455 0.328,-10 -6.999,-10 z"
                   stroke-miterlimit="10"
                   id="XMLID_1311_"
                   style="fill:#e8e2d5;fill-opacity:1;stroke:#000000;stroke-width:4;stroke-linecap:round;stroke-linejoin:round;stroke-miterlimit:10" />
                <polygon
                   points="116,40 107,58 134,58 124,40 "
                   stroke-miterlimit="10"
                   id="XMLID_1310_"
                   style="fill:#cf2626;fill-opacity:1;stroke:#000000;stroke-width:4;stroke-linecap:round;stroke-linejoin:round;stroke-miterlimit:10" />
              </g>
            </g>
          </g>
        </g>
      </g>
      <g
         id="Shower" />
    </g>
  </g>
</svg>
