<?xml version="1.0" encoding="UTF-8" standalone="no"?>
<!-- Created with Inkscape (http://www.inkscape.org/) -->

<svg
   xmlns:osb="http://www.openswatchbook.org/uri/2009/osb"
   xmlns:dc="http://purl.org/dc/elements/1.1/"
   xmlns:cc="http://creativecommons.org/ns#"
   xmlns:rdf="http://www.w3.org/1999/02/22-rdf-syntax-ns#"
   xmlns:svg="http://www.w3.org/2000/svg"
   xmlns="http://www.w3.org/2000/svg"
   xmlns:xlink="http://www.w3.org/1999/xlink"
   xmlns:sodipodi="http://sodipodi.sourceforge.net/DTD/sodipodi-0.dtd"
   xmlns:inkscape="http://www.inkscape.org/namespaces/inkscape"
   width="29.351112mm"
   height="6.5759692mm"
   viewBox="0 0 104 23.300679"
   id="svg2"
   version="1.1"
   inkscape:version="0.91 r13725"
   sodipodi:docname="Banamex.svg"
   inkscape:export-filename="C:\xampp\htdocs\principalArtefactosLuminicos\images\LogoHolophane.png"
   inkscape:export-xdpi="90"
   inkscape:export-ydpi="90">
  <defs
     id="defs4">
    <linearGradient
       id="linearGradient8026">
      <stop
         style="stop-color:#e8db00;stop-opacity:1"
         offset="0"
         id="stop8028" />
      <stop
         style="stop-color:#dc0101;stop-opacity:1"
         offset="1"
         id="stop8030" />
    </linearGradient>
    <linearGradient
       gradientTransform="matrix(1.2966993,-0.02722939,0.10223491,-0.84046196,69.745251,534.29683)"
       xlink:href="#linearGradient8026"
       id="linearGradient8036"
       x1="-797.17352"
       y1="478.79526"
       x2="-495.04318"
       y2="327.34509"
       gradientUnits="userSpaceOnUse" />
    <linearGradient
       id="linearGradient6747"
       osb:paint="solid">
      <stop
         style="stop-color:#00599c;stop-opacity:1;"
         offset="0"
         id="stop6749" />
    </linearGradient>
  </defs>
  <sodipodi:namedview
     id="base"
     pagecolor="#ffffff"
     bordercolor="#666666"
     borderopacity="1.0"
     inkscape:pageopacity="0.0"
     inkscape:pageshadow="2"
     inkscape:zoom="2.4165501"
     inkscape:cx="5.7618194"
     inkscape:cy="6.6828254"
     inkscape:document-units="px"
     inkscape:current-layer="layer1"
     showgrid="false"
     fit-margin-top="0"
     fit-margin-left="0"
     fit-margin-right="0"
     fit-margin-bottom="0"
     inkscape:window-width="944"
     inkscape:window-height="1002"
     inkscape:window-x="0"
     inkscape:window-y="0"
     inkscape:window-maximized="0" />
  <metadata
     id="metadata7">
    <rdf:RDF>
      <cc:Work
         rdf:about="">
        <dc:format>image/svg+xml</dc:format>
        <dc:type
           rdf:resource="http://purl.org/dc/dcmitype/StillImage" />
        <dc:title></dc:title>
      </cc:Work>
    </rdf:RDF>
  </metadata>
  <g
     inkscape:label="Capa 1"
     inkscape:groupmode="layer"
     id="layer1"
     transform="translate(-711.2794,-681.64688)">
    <g
       id="layer1-3"
       transform="matrix(0.21306998,0,0,0.21306998,694.1648,611.19976)">
      <path
         style="fill:#d60c1e;fill-opacity:1;fill-rule:evenodd;stroke:none;stroke-width:0.37368807px;stroke-linecap:butt;stroke-linejoin:miter;stroke-opacity:1"
         d="m 126.64585,330.62901 c -13.95987,0.0188 -25.01986,8.66565 -30.138486,15.23673 -1.29882,1.66737 -1.61945,2.48128 -2.19245,3.83894 -0.24983,0.59193 -0.53237,1.85248 -0.53237,1.85248 -1.01855,4.01575 8.635796,13.66579 14.741046,21.43326 3.43498,4.37018 7.25263,4.50112 8.43681,4.7007 5.33012,0.89832 13.03307,-6.12686 13.03307,-6.12686 8.0925,-7.49008 5.92602,-10.45238 5.92602,-10.45238 -3.35186,-7.78023 -14.56136,0.5645 -18.60671,-0.59557 -10.09912,-2.89607 11.24253,-14.93128 26.78348,-10.82795 -4.54978,-6.9942 -10.79919,-18.86214 -17.45041,-19.05935 z"
         id="path4190"
         inkscape:connector-curvature="0" />
      <path
         id="path4300"
         d="m 184.07055,359.33721 c -4.17364,-13.32137 -15.7209,-21.30586 -23.51783,-24.2363 -1.97843,-0.74357 -2.85088,-0.80738 -4.31756,-0.95023 -0.63947,-0.0623 -1.92698,0.0432 -1.92698,0.0432 -4.1369,0.22306 -10.47543,12.31243 -16.07329,20.45317 -3.14949,4.5802 -2.13803,8.26375 -1.97604,9.45365 0.72913,5.35589 9.72889,10.6183 9.72889,10.6183 9.55955,5.49589 11.7426,2.54579 11.7426,2.54579 6.4297,-5.51598 -4.87366,-13.73315 -4.97044,-17.94043 -0.24162,-10.50338 17.60112,6.28795 18.31019,22.34583 5.32269,-6.42559 14.79219,-15.92463 13.00046,-22.33301 z"
         style="fill:#d60c1e;fill-opacity:1;fill-rule:evenodd;stroke:none;stroke-width:0.37368807px;stroke-linecap:butt;stroke-linejoin:miter;stroke-opacity:1"
         inkscape:connector-curvature="0" />
      <path
         style="fill:#d60c1e;fill-opacity:1;fill-rule:evenodd;stroke:none;stroke-width:0.37368807px;stroke-linecap:butt;stroke-linejoin:miter;stroke-opacity:1"
         d="m 175.41716,422.3619 c 11.16429,-8.38073 14.83659,-21.93084 14.99649,-30.25875 0.0406,-2.11315 -0.19051,-2.95687 -0.54541,-4.38711 -0.15471,-0.62359 -0.68391,-1.80206 -0.68391,-1.80206 -1.59109,-3.82518 -15.10283,-5.76498 -24.64518,-8.32455 -5.36876,-1.44008 -8.50346,0.74289 -9.57105,1.29276 -4.80535,2.47502 -6.76199,12.71514 -6.76199,12.71514 -1.98988,10.84575 1.51969,11.9189 1.51969,11.9189 7.34577,4.21982 11.31881,-9.17804 15.2525,-10.67359 9.82036,-3.73362 -0.0524,18.6905 -14.95266,24.71876 7.83371,2.87268 19.94873,8.62848 25.39155,4.80049 z"
         id="path4302"
         inkscape:connector-curvature="0" />
      <path
         id="path4304"
         d="m 112.29454,433.61542 c 11.48379,7.93729 25.49957,7.1315 33.44984,4.64699 2.01734,-0.6304 2.74452,-1.1167 3.98887,-1.90609 0.54255,-0.34415 1.4929,-1.21918 1.4929,-1.21918 3.12482,-2.72012 0.68776,-16.15108 0.0951,-26.01295 -0.33344,-5.54854 -3.39643,-7.83103 -4.25597,-8.66966 -3.86887,-3.77478 -14.20177,-2.38932 -14.20177,-2.38932 -10.91792,1.54564 -10.82494,5.21444 -10.82494,5.21444 -1.67754,8.3038 12.28901,7.83147 14.95286,11.08947 6.65023,8.13349 -17.74596,5.86672 -28.18087,-6.35909 -0.24521,8.34022 -1.87005,21.65423 3.484,25.60542 z"
         style="fill:#d60c1e;fill-opacity:1;fill-rule:evenodd;stroke:none;stroke-width:0.37368807px;stroke-linecap:butt;stroke-linejoin:miter;stroke-opacity:1"
         inkscape:connector-curvature="0" />
      <path
         style="fill:#d60c1e;fill-opacity:1;fill-rule:evenodd;stroke:none;stroke-width:0.37368807px;stroke-linecap:butt;stroke-linejoin:miter;stroke-opacity:1"
         d="m 82.080321,376.34844 c -4.39945,13.2485 0.30341,26.4763 4.917193,33.41118 1.17069,1.75971 1.84135,2.32139 2.94794,3.29453 0.48246,0.42431 1.58883,1.09123 1.58883,1.09123 3.48709,2.2369 15.696176,-3.86785 24.996406,-7.20156 5.23254,-1.87563 6.56477,-5.45569 7.12879,-6.51587 2.53874,-4.772 -1.68803,-14.30209 -1.68803,-14.30209 -4.54454,-10.04674 -8.04014,-8.92893 -8.04014,-8.92893 -8.4411,0.71774 -4.07212,13.99177 -6.45265,17.46218 -5.94289,8.66379 -10.606596,-15.38952 -1.79656,-28.83351 -8.074486,2.10283 -21.310096,4.2758 -23.601809,10.52286 z"
         id="path4306"
         inkscape:connector-curvature="0" />
      <text
         xml:space="preserve"
         style="font-style:normal;font-variant:normal;font-weight:bold;font-stretch:normal;font-size:75.29564667px;line-height:125%;font-family:sans-serif;-inkscape-font-specification:'sans-serif, Bold';text-align:start;letter-spacing:0px;word-spacing:0px;writing-mode:lr-tb;text-anchor:start;fill:#002e5c;fill-opacity:1;stroke:none;stroke-width:1px;stroke-linecap:butt;stroke-linejoin:miter;stroke-opacity:1"
         x="221.40933"
         y="390.80063"
         id="text4308"
         transform="scale(0.93002206,1.0752433)"
         sodipodi:linespacing="125%"><tspan
           id="tspan4310"
           x="221.40933"
           y="390.80063">Banamex</tspan></text>
    </g>
  </g>
</svg>
