<?xml version="1.0" encoding="UTF-8" standalone="no"?>
<!-- Generator: Adobe Illustrator 16.0.0, SVG Export Plug-In . SVG Version: 6.00 Build 0)  -->

<svg
   xmlns:dc="http://purl.org/dc/elements/1.1/"
   xmlns:cc="http://creativecommons.org/ns#"
   xmlns:rdf="http://www.w3.org/1999/02/22-rdf-syntax-ns#"
   xmlns:svg="http://www.w3.org/2000/svg"
   xmlns="http://www.w3.org/2000/svg"
   xmlns:sodipodi="http://sodipodi.sourceforge.net/DTD/sodipodi-0.dtd"
   xmlns:inkscape="http://www.inkscape.org/namespaces/inkscape"
   version="1.1"
   id="Layer_1"
   x="0px"
   y="0px"
   width="619.77301"
   height="103.549"
   viewBox="42.445 145.14 619.77301 103.549"
   enable-background="new 42.445 145.14 779 320"
   xml:space="preserve"
   inkscape:version="0.91 r13725"
   sodipodi:docname="BancomerLogo.svg"><metadata
   id="metadata43"><rdf:RDF><cc:Work
       rdf:about=""><dc:format>image/svg+xml</dc:format><dc:type
         rdf:resource="http://purl.org/dc/dcmitype/StillImage" /><dc:title></dc:title></cc:Work></rdf:RDF></metadata><defs
   id="defs41" /><sodipodi:namedview
   pagecolor="#ffffff"
   bordercolor="#666666"
   borderopacity="1"
   objecttolerance="10"
   gridtolerance="10"
   guidetolerance="10"
   inkscape:pageopacity="0"
   inkscape:pageshadow="2"
   inkscape:window-width="1920"
   inkscape:window-height="1018"
   id="namedview39"
   showgrid="false"
   fit-margin-top="0"
   fit-margin-left="0"
   fit-margin-right="0"
   fit-margin-bottom="0"
   inkscape:zoom="1.1088469"
   inkscape:cx="305.54652"
   inkscape:cy="160.0018"
   inkscape:window-x="-8"
   inkscape:window-y="-8"
   inkscape:window-maximized="1"
   inkscape:current-layer="g3" />
<g
   id="g3"
   transform="translate(-79.614,-185.311)">
	
	<g
   id="g17">
		<path
   d="m 122.059,433.253 0,-101.011 0,-1.791 29.809,0 c 5.072,0 9.892,0.438 14.202,1.642 l 0,0 c 4.3,1.087 8.174,2.948 11.301,5.649 l 0,0 c 2.115,1.752 3.855,3.969 5.127,6.633 l 0,0 c 1.72,3.437 2.633,7.677 2.633,12.558 l 0,0 c 0,5.296 -1.173,9.55 -3.252,13.003 l 0,0 c -2.025,3.4 -5.031,5.872 -8.345,7.758 l 0,0 c -0.71,0.415 -1.434,0.78 -2.196,1.111 l 0,0 c 1.699,0.557 3.319,1.175 4.913,1.967 l 0,0 c 3.107,1.43 5.915,3.475 8.135,6.1 l 0,0 c 1.487,1.742 2.713,3.746 3.681,6.188 l 0,0 c 1.221,3.132 1.9,6.791 1.9,11.159 l 0,0 c 0,5.641 -1.192,10.408 -3.416,14.455 l 0,0 c -2.198,3.988 -5.366,7.156 -9.378,9.438 l 0,0 c -2.597,1.539 -5.561,2.695 -8.867,3.504 l 0,0 c -4.25,1.104 -9.029,1.639 -14.144,1.639 l 0,0 -32.103,0 0,-0.002 z m 31.905,-9.873 c 4.174,0 7.923,-0.447 11.225,-1.461 l 0,0 c 3.251,-0.971 6.025,-2.445 8.166,-4.447 l 0,0 c 1.379,-1.316 2.551,-2.881 3.386,-4.691 l 0,0 c 1.161,-2.404 1.806,-5.363 1.806,-8.871 l 0,0 c 0,-4.082 -0.775,-7.287 -2.213,-9.877 l 0,0 c -1.43,-2.59 -3.509,-4.623 -6.322,-6.138 l 0,0 c -1.835,-0.963 -3.953,-1.804 -6.427,-2.349 l 0,0 c -3.286,-0.811 -7.054,-1.163 -11.301,-1.163 l 0,0 -19.166,0 0,38.997 20.846,0 0,0 z m -2.522,-48.841 c 3.68,0 7.021,-0.375 10.006,-1.149 l 0,0 c 3.021,-0.824 5.56,-2.09 7.502,-3.795 l 0,0 c 1.286,-1.127 2.426,-2.468 3.225,-4.152 l 0,0 c 1.091,-2.187 1.71,-4.851 1.71,-8.266 l 0,0 c 0,-3.812 -0.778,-6.735 -2.105,-9.03 l 0,0 c -1.374,-2.236 -3.256,-3.869 -5.688,-5.09 l 0,0 c -1.606,-0.885 -3.471,-1.518 -5.489,-1.958 l 0,0 c -2.685,-0.55 -5.679,-0.837 -8.872,-0.837 l 0,0 -18.612,0 0,34.277 18.323,0 0,0 z"
   id="path19"
   inkscape:connector-curvature="0"
   style="fill:#004b93" />
		<g
   id="g21">
			<path
   d="m 257.939,367.312 c -0.942,-2.215 -2.262,-4.104 -3.934,-5.663 -2.36,-2.323 -5.438,-4.019 -9.035,-5.038 -3.483,-0.994 -7.491,-1.429 -11.809,-1.429 -14.739,0.081 -23.02,4.349 -28.403,7.417 3.98,8.417 8.197,6.357 13.646,4.018 4.175,-1.799 8.998,-2.547 14.077,-2.547 2.329,0.006 4.898,0.549 7.393,1.061 1.468,0.396 2.795,0.941 3.887,1.582 1.779,1.115 3.039,2.476 4.004,4.257 0.941,1.794 1.455,4.155 1.455,7.188 l 0,11 c -5.569,-1.235 -11.183,-1.793 -17.566,-1.793 -4.476,0 -8.575,0.428 -12.382,1.328 -2.782,0.693 -5.296,1.627 -7.713,2.862 -3.438,1.888 -6.262,4.44 -8.263,7.642 -1.977,3.277 -2.985,7.119 -2.985,11.609 0,3.645 0.646,7.051 1.853,9.936 1.914,4.311 5.19,7.723 9.256,9.908 4.135,2.234 8.969,3.35 14.437,3.35 0,0 0,0 0.017,0 6.294,0 11.283,-1.172 15.562,-3.166 2.916,-1.43 5.458,-3.166 7.788,-5.24 0.053,1.006 0.128,1.834 0.25,2.604 0.114,0.836 0.322,1.59 0.699,2.273 0.255,0.508 0.587,1.014 1.028,1.4 0.68,0.545 1.454,0.918 2.243,1.104 0.8,0.219 1.724,0.279 2.694,0.279 l 3.729,0 0,-55.547 c -0.004,-4.002 -0.666,-7.424 -1.928,-10.395 z m -8.72,46.725 c -2.708,3.129 -5.569,5.797 -8.915,7.627 -3.532,1.965 -7.792,3.135 -13.493,3.135 -2.305,0 -4.457,-0.264 -6.438,-0.83 -1.417,-0.393 -2.678,-0.99 -3.827,-1.732 -1.649,-1.072 -2.977,-2.531 -3.959,-4.48 -0.978,-1.984 -1.524,-4.439 -1.524,-7.51 0,-2.639 0.529,-4.695 1.524,-6.404 0.772,-1.307 1.701,-2.41 2.91,-3.473 1.772,-1.459 4.133,-2.494 7,-3.254 2.761,-0.729 5.981,-1.078 9.593,-1.078 6.33,0 11.937,0.828 17.13,1.963 l 0,16.036 -0.001,0 z"
   id="path23"
   inkscape:connector-curvature="0"
   style="fill:#004b93" />
		</g>
		<path
   d="m 328.914,433.253 0,-55.834 c 0,-3.146 -0.447,-5.451 -1.253,-7.185 l 0,0 c -0.791,-1.719 -1.835,-2.864 -3.149,-3.76 l 0,0 c -0.899,-0.521 -1.958,-0.974 -3.096,-1.274 l 0,0 c -1.625,-0.379 -3.446,-0.527 -5.415,-0.527 l 0,0 c -5.125,0 -10.17,1.398 -15.037,3.652 l 0,0 c -4.521,2.137 -8.906,4.932 -12.813,7.912 l 0,0 0,57.016 -10.666,0 0,-77.263 5.062,0 c 0.544,0.047 1.044,0.053 1.558,0.115 l 0,0 c 0.513,0.061 1.042,0.227 1.578,0.533 l 0,0 c 0.354,0.203 0.67,0.441 0.913,0.74 l 0,0 c 0.379,0.4 0.682,0.896 0.861,1.382 l 0,0 c 0.229,0.713 0.432,1.469 0.529,2.268 l 0,0 c 0.121,1.132 0.164,2.425 0.164,4.099 l 0,0 0,0.826 c 3.536,-2.621 7.472,-4.953 11.918,-6.865 l 0,0 c 5.607,-2.391 11.834,-3.904 18.69,-3.904 l 0,0 c 3.056,0 5.994,0.328 8.732,1.199 l 0,0 c 2.716,0.884 5.229,2.337 7.228,4.629 l 0,0 c 1.326,1.472 2.383,3.291 3.258,5.335 l 0,0 c 1.088,2.884 1.667,6.261 1.667,10.305 l 0,0 0,56.603 -10.729,0 0,-0.002 z"
   id="path25"
   inkscape:connector-curvature="0"
   style="fill:#004b93" />
		<path
   d="m 436.081,427.841 c -5.724,-3.979 -10.081,-9.787 -12.59,-17.02 l 0,0 c -1.702,-4.861 -2.592,-10.281 -2.592,-16.283 l 0,0 c 0,-8.898 2.008,-16.709 5.695,-23 l 0,0 c 3.692,-6.265 9.09,-10.944 15.683,-13.717 l 0,0 c 4.438,-1.746 9.312,-2.64 14.671,-2.64 l 0,0 c 8.026,-0.03 15.164,2.062 20.877,6.12 l 0,0 c 5.761,3.916 10.086,9.729 12.653,17.002 l 0,0 c 1.659,4.789 2.522,10.286 2.522,16.232 l 0,0 c 0,8.965 -1.955,16.789 -5.712,23.021 l 0,0 c -3.641,6.232 -9.049,10.893 -15.623,13.574 l 0,0 c -4.47,1.773 -9.41,2.742 -14.719,2.742 l 0,0 0,0 0,0 c -7.979,0.004 -15.087,-2.126 -20.865,-6.031 l 0,0 z m 5.962,-59.039 c -3.906,2.912 -6.878,7.195 -8.646,12.773 l 0,0 c -1.192,3.77 -1.789,8.09 -1.789,12.963 l 0,0 c 0,7.418 1.396,13.457 3.909,18.168 l 0,0 c 2.579,4.686 6.182,8.043 10.777,9.973 l 0,0 c 3.084,1.311 6.633,2.01 10.653,2.01 l 0,0 c 5.949,0 10.927,-1.539 14.873,-4.416 l 0,0 c 3.889,-2.881 6.833,-7.07 8.636,-12.707 l 0,0 c 1.139,-3.725 1.76,-8.107 1.76,-13.027 l 0,0 0,0 c 0,-7.265 -1.385,-13.354 -3.976,-18.043 l 0,0 c -2.503,-4.766 -6.094,-8.17 -10.736,-10.199 l 0,0 c -3.038,-1.319 -6.608,-1.993 -10.557,-1.993 l 0,0 c -6.003,-0.002 -10.991,1.522 -14.904,4.498 l 0,0 z"
   id="path27"
   inkscape:connector-curvature="0"
   style="fill:#004b93" />
		<path
   d="m 600.567,433.253 0,-56.32 c 0,-2.955 -0.381,-5.131 -1.038,-6.82 l 0,0 c -0.688,-1.65 -1.568,-2.75 -2.759,-3.619 l 0,0 c -0.829,-0.519 -1.781,-0.965 -2.881,-1.273 l 0,0 c -1.464,-0.37 -3.232,-0.545 -5.249,-0.545 l 0,0 c -4.882,0 -9.339,1.33 -13.555,3.438 l 0,0 c -3.932,2 -7.67,4.635 -11.215,7.467 l 0,0 0,57.676 -10.684,0 0,-56.32 c 0,-2.924 -0.413,-5.118 -1.127,-6.82 l 0,0 c -0.69,-1.619 -1.626,-2.74 -2.83,-3.619 l 0,0 c -0.806,-0.519 -1.716,-0.965 -2.822,-1.273 l 0,0 c -1.454,-0.37 -3.12,-0.545 -4.978,-0.545 l 0,0 c -5.1,0 -9.571,1.314 -13.812,3.423 l 0,0 c -3.979,1.991 -7.689,4.649 -11.294,7.565 l 0,0 0,57.59 -10.63,0 0,-77.262 5.03,0 c 0.526,0.045 1.038,0.051 1.589,0.114 l 0,0 c 0.556,0.062 1.055,0.228 1.625,0.533 l 0,0 c 0.341,0.155 0.65,0.442 0.911,0.741 l 0,0 c 0.422,0.4 0.684,0.896 0.879,1.381 l 0,0 c 0.204,0.713 0.365,1.469 0.427,2.287 l 0,0 c 0.152,1.111 0.169,2.419 0.169,4.078 l 0,0 0,0.147 c 2.983,-2.144 6.425,-4.274 10.216,-6.092 l 0,0 c 5.105,-2.39 10.983,-4 17.407,-4 l 0,0 c 3.188,0 6.308,0.444 9.14,1.61 l 0,0 c 2.895,1.16 5.446,3.092 7.357,5.648 l 0,0 c 0.76,1.068 1.422,2.293 1.945,3.619 l 0,0 c 3.413,-2.672 7.265,-5.094 11.58,-7.077 l 0,0 c 5.171,-2.307 10.993,-3.802 17.215,-3.802 l 0,0 c 2.995,0 5.885,0.387 8.524,1.29 l 0,0 c 2.576,0.919 4.975,2.442 6.876,4.556 l 0,0 c 1.255,1.377 2.307,3.047 3.073,4.961 l 0,0 c 0.975,2.604 1.506,5.535 1.506,8.967 l 0,0 0,58.297 -10.595,0 0,-0.001 z"
   id="path29"
   inkscape:connector-curvature="0"
   style="fill:#004b93" />
		<path
   d="m 413.105,363.167 c -3.985,8.416 -7.793,5.654 -13.231,3.309 l 0,0 c -2.899,-1.225 -6.705,-2.062 -11.696,-2.062 l 0,0 c -5.878,0.016 -10.885,1.543 -14.902,4.44 l 0,0 c -4.041,2.886 -7.12,7.126 -8.942,12.675 l 0,0 c -1.265,3.725 -1.956,7.992 -1.956,12.868 l 0,0 c 0,5.517 0.817,10.366 2.266,14.403 l 0,0 c 1.514,4.07 3.638,7.303 6.354,9.797 l 0,0 c 1.854,1.674 3.901,2.988 6.25,3.975 l 0,0 c 3.188,1.309 6.753,1.973 10.934,1.973 l 0,0 c 5.468,0 9.648,-1.215 12.812,-2.758 5.266,-2.727 8.876,-5.838 13.443,2.279 -1.936,1.84 -5.187,4.348 -8.653,6.002 -0.519,0.24 -1.055,0.475 -1.613,0.705 -4.292,1.793 -9.739,3.104 -16.343,3.104 l 0,0 c -0.026,0 -0.026,0 -0.026,0 l 0,0 c -8.393,0 -15.573,-2.17 -21.359,-6.131 l 0,0 c -5.772,-4.051 -9.987,-9.855 -12.441,-17.145 l 0,0 c -1.602,-4.836 -2.414,-10.318 -2.414,-16.204 l 0,0 c -0.016,-9.011 2.063,-16.832 5.883,-23.067 l 0,0 c 3.803,-6.203 9.349,-10.816 16.049,-13.539 l 0,0 c 4.441,-1.715 9.446,-2.607 14.774,-2.607 l 0,0 c 3.049,0.14 13.947,-0.84 24.811,7.983 z"
   id="path31"
   inkscape:connector-curvature="0"
   style="fill:#004b93" />
		<g
   id="g33">
			<path
   d="m 687.405,375.335 c -1.115,-3.416 -2.641,-6.401 -4.552,-9.01 -2.839,-3.783 -6.487,-6.604 -10.763,-8.535 -4.28,-1.754 -9.193,-2.607 -14.397,-2.607 -4.971,0 -9.603,0.923 -13.833,2.771 -6.217,2.778 -11.464,7.508 -15.083,13.849 -3.578,6.289 -5.562,14.092 -5.562,23.049 0,5.797 0.762,11.192 2.343,16.005 2.352,7.168 6.484,12.953 12.258,16.934 5.709,3.947 13.078,6.088 21.674,6.088 0,0 0,0 0.019,0 6.891,0 12.479,-1.117 17.043,-2.742 7.304,-2.75 11.038,-6.113 12.85,-8.08 -4.982,-7.244 -7.816,-4.35 -13.567,-1.682 -3.368,1.67 -9.836,3.076 -15.64,3.076 -4.448,0 -8.298,-0.656 -11.505,-1.893 -2.43,-0.908 -4.551,-2.17 -6.369,-3.773 -2.678,-2.395 -4.817,-5.496 -6.187,-9.496 -1.277,-3.545 -1.983,-7.756 -2.111,-12.668 l 55.584,0 0,-1.75 c 0,-0.019 0,-0.215 0,-0.465 0.007,-0.646 0.089,-1.855 0.089,-3.023 -0.003,-6.13 -0.753,-11.444 -2.291,-16.048 z m -53.085,12.303 c 0.48,-3.543 1.297,-6.633 2.418,-9.387 2.004,-4.779 4.855,-8.277 8.354,-10.596 3.568,-2.382 7.731,-3.521 12.601,-3.521 3.211,0 6.185,0.432 8.704,1.328 1.877,0.701 3.602,1.642 5.103,2.941 2.237,1.898 4.021,4.414 5.346,7.918 1.091,3.062 1.876,6.74 2.137,11.315 l -44.663,0.002 0,0 z"
   id="path35"
   inkscape:connector-curvature="0"
   style="fill:#004b93" />
		</g>
		<path
   d="m 735.151,355.484 c -5.64,-0.014 -10.614,1.734 -14.879,4.387 l 0,0 c -2.785,1.705 -5.298,3.779 -7.523,5.987 l 0,0 0,0 c 0,-1.851 -0.041,-3.291 -0.216,-4.468 l 0,0 c -0.058,-0.925 -0.195,-1.672 -0.448,-2.418 l 0,0 c -0.188,-0.486 -0.422,-0.988 -0.812,-1.473 l 0,0 c -0.275,-0.281 -0.58,-0.562 -0.92,-0.773 l 0,0 c -0.516,-0.324 -1.062,-0.527 -1.648,-0.591 l 0,0 c -0.491,-0.063 -0.994,-0.072 -1.529,-0.115 l -5.089,0 0,77.259 0,0 10.664,0 0,-55.447 0,0 c 3.738,-4.416 7.202,-7.157 9.578,-8.651 0.078,-0.05 0.16,-0.097 0.237,-0.149 4.315,-2.726 7.768,-3.481 10.514,-3.744 4.945,-0.474 8.261,-1.125 8.752,-8.828 -1.986,-0.591 -4.267,-0.953 -6.681,-0.976 z"
   id="path37"
   inkscape:connector-curvature="0"
   style="fill:#004b93" />
	</g>
</g>
</svg>