<?xml version="1.0" encoding="UTF-8" standalone="no"?>
<!-- Created with Inkscape (http://www.inkscape.org/) -->

<svg
   xmlns:dc="http://purl.org/dc/elements/1.1/"
   xmlns:cc="http://creativecommons.org/ns#"
   xmlns:rdf="http://www.w3.org/1999/02/22-rdf-syntax-ns#"
   xmlns:svg="http://www.w3.org/2000/svg"
   xmlns="http://www.w3.org/2000/svg"
   xmlns:sodipodi="http://sodipodi.sourceforge.net/DTD/sodipodi-0.dtd"
   xmlns:inkscape="http://www.inkscape.org/namespaces/inkscape"
   width="104"
   height="19.972456"
   viewBox="0 0 361.52097 10.195868"
   id="svg2"
   version="1.1"
   inkscape:version="0.91 r13725"
   sodipodi:docname="LogoHYDREL.svg">
  <defs
     id="defs4" />
  <sodipodi:namedview
     id="base"
     pagecolor="#ffffff"
     bordercolor="#666666"
     borderopacity="1.0"
     inkscape:pageopacity="0.0"
     inkscape:pageshadow="2"
     inkscape:zoom="18.983986"
     inkscape:cx="75.361622"
     inkscape:cy="1.2584723"
     inkscape:document-units="px"
     inkscape:current-layer="g4147"
     showgrid="false"
     inkscape:window-width="1920"
     inkscape:window-height="1018"
     inkscape:window-x="-8"
     inkscape:window-y="-8"
     inkscape:window-maximized="1"
     fit-margin-top="0"
     fit-margin-left="0"
     fit-margin-right="0"
     fit-margin-bottom="0" />
  <metadata
     id="metadata7">
    <rdf:RDF>
      <cc:Work
         rdf:about="">
        <dc:format>image/svg+xml</dc:format>
        <dc:type
           rdf:resource="http://purl.org/dc/dcmitype/StillImage" />
        <dc:title></dc:title>
      </cc:Work>
    </rdf:RDF>
  </metadata>
  <g
     inkscape:label="Capa 1"
     inkscape:groupmode="layer"
     id="layer1"
     transform="translate(-178.37796,-516.69731)">
    <g
       id="g4210"
       style="stroke:#4d4d4d;stroke-opacity:1">
      <g
         id="g4196"
         style="stroke:#4d4d4d;stroke-opacity:1">
        <g
           id="g4183"
           style="stroke:#4d4d4d;stroke-opacity:1">
          <g
             id="g4171"
             style="stroke:#4d4d4d;stroke-opacity:1">
            <g
               id="g4147">
              <path
                 sodipodi:nodetypes="ccsccccsccc"
                 inkscape:connector-curvature="0"
                 id="path4147"
                 d="m 491.57093,503.77588 c -10e-6,5e-5 0.0311,22.328 0.0311,22.328 0,0 -0.19279,1.94327 0.98494,3.00863 1.3602,1.23042 3.74767,1.02909 3.74767,1.02909 l 23.21015,0.11334 0.10677,7.90101 -31.22781,-0.24467 c 0,0 -2.52543,0.008 -4.3952,-1.79559 -1.60599,-1.54953 -1.63252,-4.82771 -1.63252,-4.82771 l -0.43443,-27.72564 z"
                 style="fill:none;fill-rule:evenodd;stroke:#4d4d4d;stroke-width:2.5;stroke-linecap:butt;stroke-linejoin:miter;stroke-miterlimit:4;stroke-dasharray:none;stroke-opacity:1" />
              <path
                 sodipodi:nodetypes="sccsccccsccccsccccs"
                 inkscape:connector-curvature="0"
                 id="path4151"
                 d="m 427.85876,536.36503 c -2.69643,-2.27189 -2.50484,-4.63463 -2.50484,-4.63463 l -0.14035,-21.67278 c 0,0 0.43279,-1.99514 2.49272,-3.91255 2.19699,-2.04499 4.59748,-2.30349 4.59748,-2.30349 l 31.25441,-0.12389 1e-5,8.30478 -27.53585,0.0499 c 0,0 -2.35346,0.70149 -2.13823,2.67137 0.20043,1.83445 2.36075,2.24823 2.36075,2.24823 l 27.39949,0.0236 -0.007,7.99229 -27.4115,-0.0758 c 0,0 -2.51056,-0.16511 -2.28848,2.87055 0.17913,2.44857 2.35061,2.30826 2.35061,2.30826 l 27.40412,0.10669 0.0921,8.15375 -30.87576,-0.13394 c 0,0 -2.63279,0.16402 -5.04968,-1.87234 z"
                 style="fill:none;fill-rule:evenodd;stroke:#4d4d4d;stroke-width:2.5;stroke-linecap:butt;stroke-linejoin:miter;stroke-miterlimit:4;stroke-dasharray:none;stroke-opacity:1" />
              <path
                 sodipodi:nodetypes="cccscccccccccscc"
                 inkscape:connector-curvature="0"
                 id="path4144"
                 d="m 367.78804,503.86532 0.0661,8.36112 30.08675,-0.0466 c 0,0 2.23141,0.12969 2.23185,2.29097 5.1e-4,2.49192 -2.2267,2.67806 -2.2267,2.67806 l -30.12408,-0.0962 0.0492,20.91244 8.51178,-0.0332 0.5336,-12.77211 12.45808,-0.0229 10.41301,12.83912 10.69589,0.0302 -9.92326,-12.91732 c 0,0 8.78793,-1.53166 8.59207,-10.77742 -0.21328,-10.06823 -10.10608,-10.53113 -10.10608,-10.53113 z"
                 style="fill:none;fill-rule:evenodd;stroke:#4d4d4d;stroke-width:2.5;stroke-linecap:butt;stroke-linejoin:miter;stroke-miterlimit:4;stroke-dasharray:none;stroke-opacity:1" />
              <path
                 sodipodi:nodetypes="cccsccscc"
                 inkscape:connector-curvature="0"
                 id="path4157"
                 d="m 320.52908,511.91535 -0.0475,17.83888 18.64758,-3e-5 c 0,0 2.05411,0.0896 2.80623,-0.6056 0.99135,-0.91626 0.88463,-2.48627 0.88463,-2.48627 l -0.0279,-11.79765 c 0,0 0.0876,-0.9723 -1.1366,-2.03672 -1.02327,-0.88969 -2.37585,-0.95068 -2.37585,-0.95068 z"
                 style="fill:none;fill-rule:evenodd;stroke:#4d4d4d;stroke-width:2.5;stroke-linecap:butt;stroke-linejoin:miter;stroke-miterlimit:4;stroke-dasharray:none;stroke-opacity:1" />
              <path
                 style="fill:none;fill-rule:evenodd;stroke:#4d4d4d;stroke-width:2.5;stroke-linecap:butt;stroke-linejoin:miter;stroke-miterlimit:4;stroke-dasharray:none;stroke-opacity:1"
                 d="m 311.71651,504.1434 -0.0832,33.69755 32.70646,-6e-5 c 0,0 3.05005,-10e-4 5.24776,-2.26466 2.0908,-2.15334 1.97746,-4.13466 1.97746,-4.13466 l -0.0964,-21.06802 c 0,0 0.0611,-1.90114 -2.27606,-4.10974 -2.28438,-2.15877 -4.63669,-2.191 -4.63669,-2.191 z"
                 id="path4159"
                 inkscape:connector-curvature="0"
                 sodipodi:nodetypes="cccsccscc" />
              <path
                 sodipodi:nodetypes="ccscccscccsccccsccsccc"
                 inkscape:connector-curvature="0"
                 id="path4161"
                 d="m 257.6619,503.80472 0.0312,14.34081 c 0,0 -0.17854,1.894 1.97144,4.57868 1.29703,1.6196 4.39574,1.69442 4.39574,1.69442 l 7.83415,0.005 0.0402,11.82694 c 0,0 -0.16592,2.71096 5.19092,2.58172 5.25039,-0.12667 4.77631,-2.37472 4.77631,-2.37472 l 0.0476,-12.03663 8.89858,-0.002 c 0,0 2.59194,-0.0573 3.86911,-1.6489 1.94214,-2.42036 1.73191,-3.6132 1.73191,-3.6132 l -0.0265,-15.5203 -8.36678,-0.0189 -0.0385,10.54617 c 0,0 0.0157,1.30807 -0.76508,2.11014 -0.66619,0.68437 -2.28833,0.59543 -2.28833,0.59543 l -15.04229,-0.19581 c 0,0 -1.89291,0.17745 -2.60082,-0.46327 -0.8478,-0.76735 -0.85469,-2.50343 -0.85469,-2.50343 l -0.0619,-9.87914 z"
                 style="fill:none;fill-rule:evenodd;stroke:#4d4d4d;stroke-width:2.5;stroke-linecap:butt;stroke-linejoin:miter;stroke-miterlimit:4;stroke-dasharray:none;stroke-opacity:1" />
              <path
                 sodipodi:nodetypes="ccccccccccccc"
                 inkscape:connector-curvature="0"
                 id="path4163"
                 d="m 203.45843,503.73325 0,34.48851 8.94323,0.0476 0,-13.46241 20.45525,-0.0476 -0.0476,13.50999 9.08594,0.0951 0,-34.58365 -8.75295,-0.0475 -0.14271,12.65371 -20.97852,0.0476 -0.0951,-12.65371 z"
                 style="fill:none;fill-rule:evenodd;stroke:#4d4d4d;stroke-width:2.5;stroke-linecap:butt;stroke-linejoin:miter;stroke-miterlimit:4;stroke-dasharray:none;stroke-opacity:1" />
              <path
                 sodipodi:nodetypes="csccscc"
                 inkscape:connector-curvature="0"
                 id="path4165"
                 d="m 209.40021,488.76273 c 0,0 -29.84354,3.25234 -29.77212,33.31284 0.0694,29.22076 29.77002,33.18342 29.77002,33.18342 l 298.38533,-0.017 c 0,0 31.15069,-2.84543 30.86356,-33.36823 -0.28342,-30.12728 -30.40138,-33.54218 -30.40138,-33.54218 z"
                 style="fill:none;fill-rule:evenodd;stroke:#4d4d4d;stroke-width:2.5;stroke-linecap:butt;stroke-linejoin:miter;stroke-miterlimit:4;stroke-dasharray:none;stroke-opacity:1" />
              <text
                 transform="scale(0.98372267,1.0165467)"
                 sodipodi:linespacing="125%"
                 id="text4167"
                 y="487.59897"
                 x="539.17682"
                 style="font-style:normal;font-weight:normal;font-size:10.41986847px;line-height:125%;font-family:sans-serif;letter-spacing:0px;word-spacing:0px;fill:#4d4d4d;fill-opacity:1;stroke:none;stroke-width:1px;stroke-linecap:butt;stroke-linejoin:miter;stroke-opacity:1"
                 xml:space="preserve"><tspan
                   y="487.59897"
                   x="539.17682"
                   id="tspan4169"
                   sodipodi:role="line" /></text>
            </g>
          </g>
        </g>
      </g>
    </g>
  </g>
</svg>
