<?xml version="1.0" encoding="UTF-8" standalone="no"?>
<svg
   xmlns:dc="http://purl.org/dc/elements/1.1/"
   xmlns:cc="http://creativecommons.org/ns#"
   xmlns:rdf="http://www.w3.org/1999/02/22-rdf-syntax-ns#"
   xmlns:svg="http://www.w3.org/2000/svg"
   xmlns="http://www.w3.org/2000/svg"
   xmlns:sodipodi="http://sodipodi.sourceforge.net/DTD/sodipodi-0.dtd"
   xmlns:inkscape="http://www.inkscape.org/namespaces/inkscape"
   version="1.1"
   id="svg4157"
   viewBox="0 0 2189.2067 472.77592"
   height="43.742168"
   width="117.07556"
   inkscape:version="0.91 r13725"
   sodipodi:docname="LogoHolophane.svg">
  <sodipodi:namedview
     pagecolor="#ffffff"
     bordercolor="#666666"
     borderopacity="1"
     objecttolerance="10"
     gridtolerance="10"
     guidetolerance="10"
     inkscape:pageopacity="0"
     inkscape:pageshadow="2"
     inkscape:window-width="1920"
     inkscape:window-height="1018"
     id="namedview18"
     showgrid="false"
     fit-margin-top="0"
     fit-margin-left="0"
     fit-margin-right="0"
     fit-margin-bottom="0"
     inkscape:zoom="13.379845"
     inkscape:cx="41.999176"
     inkscape:cy="28.243327"
     inkscape:window-x="-8"
     inkscape:window-y="-8"
     inkscape:window-maximized="1"
     inkscape:current-layer="g4146" />
  <defs
     id="defs4159" />
  <metadata
     id="metadata4162">
    <rdf:RDF>
      <cc:Work
         rdf:about="">
        <dc:format>image/svg+xml</dc:format>
        <dc:type
           rdf:resource="http://purl.org/dc/dcmitype/StillImage" />
        <dc:title></dc:title>
      </cc:Work>
    </rdf:RDF>
  </metadata>
  <g
     transform="translate(750.51783,-275.21199)"
     id="layer1">
    <g
       id="g4152">
      <g
         transform="translate(-178.92283,429.97318)"
         id="g4153">
        <g
           id="g4146"
           transform="matrix(0.99999522,-0.00309341,0.00309341,0.99999522,845.45523,-597.29603)">
          <path
             sodipodi:nodetypes="cccc"
             inkscape:connector-curvature="0"
             style="fill:none;fill-rule:evenodd;stroke:#015a9c;stroke-width:9.19995379;stroke-linecap:butt;stroke-linejoin:miter;stroke-miterlimit:4;stroke-dasharray:none;stroke-opacity:1"
             d="m -611.92973,679.09727 474.99649,1.92833 -240.61822,-408.76608 z"
             id="path4705" />
          <path
             sodipodi:nodetypes="cscccc"
             inkscape:connector-curvature="0"
             style="fill:#015a9c;fill-opacity:1;fill-rule:evenodd;stroke:none;stroke-width:1px;stroke-linecap:butt;stroke-linejoin:miter;stroke-opacity:1"
             d="m -414.92582,645.18413 c 0,0 -159.29726,-251.23263 -123.18525,-186.88389 l 120.52814,214.77156 197.34238,-285.17125 -22.08797,-33.10836 z"
             id="path8062" />
          <path
             id="path4158"
             d="m -500.37021,644.30394 c 0,0 -98.71904,-151.18105 -81.87285,-119.35716 l 78.59605,148.47466 239.15567,-360.50619 -22.37411,-32.38634 z"
             style="fill:#015a9c;fill-opacity:1;fill-rule:evenodd;stroke:none;stroke-width:1px;stroke-linecap:butt;stroke-linejoin:miter;stroke-opacity:1"
             inkscape:connector-curvature="0"
             sodipodi:nodetypes="cscccc" />
          <path
             id="path4160"
             d="m -328.63838,645.34403 c 0,0 -192.10137,-312.13654 -156.28732,-247.6215 l 152.39275,277.35297 152.9728,-214.43925 -18.38494,-35.61938 z"
             style="fill:#015a9c;fill-opacity:1;fill-rule:evenodd;stroke:none;stroke-width:1px;stroke-linecap:butt;stroke-linejoin:miter;stroke-opacity:1"
             inkscape:connector-curvature="0"
             sodipodi:nodetypes="cscccc" />
          <path
             id="path4164"
             d="m -238.71311,645.00633 c 0,0 -242.70237,-382.53185 -207.26962,-321.00495 l 200.91728,348.88119 107.64188,-139.34015 -16.98982,-34.77423 z"
             style="fill:#015a9c;fill-opacity:1;fill-rule:evenodd;stroke:none;stroke-width:1px;stroke-linecap:butt;stroke-linejoin:miter;stroke-opacity:1"
             inkscape:connector-curvature="0"
             sodipodi:nodetypes="cscccc" />
        </g>
        <path
           id="path8095"
           d="m -570.12742,117.1817 2124.76772,-0.037"
           style="fill:none;fill-rule:evenodd;stroke:#015a9c;stroke-width:4.82436562;stroke-linecap:butt;stroke-linejoin:miter;stroke-miterlimit:4;stroke-dasharray:none;stroke-opacity:1"
           inkscape:connector-curvature="0"
           sodipodi:nodetypes="cc" />
        <text
           transform="scale(1.0109057,0.98921199)"
           id="text8097"
           y="198.48448"
           x="1542.9425"
           style="font-style:normal;font-weight:normal;font-size:66.3927002px;line-height:125%;font-family:sans-serif;letter-spacing:0px;word-spacing:0px;fill:#015a9c;fill-opacity:1;stroke:none;stroke-width:1px;stroke-linecap:butt;stroke-linejoin:miter;stroke-opacity:1"
           xml:space="preserve"
           sodipodi:linespacing="125%"><tspan
             style="fill:#015a9c;fill-opacity:1"
             y="198.48448"
             x="1542.9425"
             id="tspan8099">®</tspan></text>
        <text
           transform="matrix(1.1708308,0.00189371,-0.00253432,0.85409026,0,0)"
           id="text8101"
           y="570.42566"
           x="-487.41495"
           style="font-style:normal;font-variant:normal;font-weight:normal;font-stretch:normal;font-size:118.41368103px;line-height:125%;font-family:'Gill Sans MT';-inkscape-font-specification:'Gill Sans MT, Normal';text-align:start;letter-spacing:0px;word-spacing:0px;writing-mode:lr-tb;text-anchor:start;fill:#015a9c;fill-opacity:1;stroke:none;stroke-width:1px;stroke-linecap:butt;stroke-linejoin:miter;stroke-opacity:1"
           xml:space="preserve"
           sodipodi:linespacing="125%"><tspan
             style="fill:#015a9c;fill-opacity:1"
             y="570.42566"
             x="-487.41495"
             id="tspan8103">LEADER IN LIGHTING SOLUTIONS</tspan></text>
      </g>
      <path
         sodipodi:nodetypes="ccccccccccccc"
         inkscape:connector-curvature="0"
         id="path4159"
         d="m -750.24954,576.71577 88.61767,0.24733 0.058,86.18393 57.18156,-0.18914 -0.03,-86.67039 89.63518,0.15611 -0.15611,255.68164 -89.6152,0 0.2491,-88.39345 -57.11851,-0.2091 -0.063,88.83171 -89.02698,0.23986 z"
         style="fill:#015a9c;fill-opacity:1;fill-rule:evenodd;stroke:none;stroke-width:1.86990917;stroke-linecap:butt;stroke-linejoin:miter;stroke-miterlimit:4;stroke-dasharray:none;stroke-opacity:1" />
      <path
         sodipodi:nodetypes="csssssssscc"
         inkscape:connector-curvature="0"
         id="path4163"
         d="m -372.80673,572.01807 c 0,0 -138.83583,5.34711 -138.83583,132.27052 0,70.93639 47.65018,131.80936 139.24689,131.80936 99.48336,0 142.1372,-65.49302 142.55243,-129.74339 0.41572,-64.32589 -42.39629,-134.4329 -142.9216,-134.4329 0,0 -0.70211,84.50391 -0.12131,84.50916 31.25516,0.28272 52.49956,23.42802 50.90347,53.31832 -1.77494,33.2398 -26.04737,45.56376 -48.83799,46.52343 -26.44266,1.11345 -49.03124,-22.47594 -47.82409,-47.8796 2.45283,-51.6178 45.5317,-52.00361 45.5317,-52.00361 z"
         style="fill:#015a9c;fill-opacity:1;fill-rule:evenodd;stroke:none;stroke-width:1.86990917;stroke-linecap:butt;stroke-linejoin:miter;stroke-miterlimit:4;stroke-dasharray:none;stroke-opacity:1" />
      <path
         sodipodi:nodetypes="ccccccsssccsscccc"
         inkscape:connector-curvature="0"
         id="path4165"
         d="m -225.68624,576.00394 93.62422,-0.025 0.24944,174.4843 71.274023,0.36589 c 0,0 -48.719423,-161.50657 133.815377,-178.81007 l -0.584346,84.8033 c 0,0 -42.801657,0.0434 -46.820774,49.66947 -1.846833,22.80375 17.958165,49.66946 48.208596,49.66946 46.267684,0 48.208594,-46.45555 48.208594,-46.45555 1.14446,-52.03108 -49.66946,-52.88338 -49.66946,-52.88338 l 0.584346,-84.75533 c 89.242534,0 140.632074,60.61229 142.580584,130.33437 1.74309,62.37196 -43.19088,133.81537 -139.15756,133.81537 -103.693774,0 -132.490584,-73.11637 -132.490584,-73.11637 l 0.584346,68.36855 -170.845002,-1.1556 z"
         style="fill:#015a9c;fill-opacity:1;fill-rule:evenodd;stroke:none;stroke-width:0.93495458;stroke-linecap:butt;stroke-linejoin:miter;stroke-miterlimit:4;stroke-dasharray:none;stroke-opacity:1" />
      <path
         sodipodi:nodetypes="ccccccscccsccccccccccccccccscccccsccccccccccccccscc"
         inkscape:connector-curvature="0"
         id="path4167"
         d="m 219.08253,576.66237 -0.8878,254.80651 89.98938,0 -0.58435,-77.7181 1.16869,-63.69379 -0.58434,-43.24165 c 0,0 42.34472,-7.51273 43.47051,19.5184 1.31955,31.68367 -42.88617,23.72325 -42.88617,23.72325 l -1.16869,63.69379 56.2951,1.66074 c 0,0 28.56776,-2.15372 44.84616,-14.28817 23.76823,-17.7176 27.19587,-40.10988 27.19587,-40.10988 l 0.5113,131.91625 90.11041,-0.39548 0.17114,-89.30173 57.26597,0 0.003,88.95943 176.84739,0.5165 7.21876,-32.28301 18.11474,-60.91813 17.43015,-82.21527 18.04385,82.16299 -35.48437,0.0752 -18.10437,60.96827 70.6705,-0.37775 8.4229,32.55225 175.09744,-0.76587 c 0,0 0.4496,-53.77619 0.4496,-80.6649 0,-25.77785 -6.5697,-58.34049 -6.5697,-58.34049 l 84.9015,138.87399 89.5113,-0.30686 0,-255.35948 -89.7473,-0.2066 c 0,0 0.9257,77.94933 0.9257,82.54683 0,21.82177 7.3899,63.88821 7.3899,63.88821 l -85.9845,-146.66669 -88.52855,0.43825 -0.58435,222.05172 -80.63983,-221.46737 -102.26066,0 -78.30245,222.05172 -0.58435,-222.05172 -88.82068,-0.58435 1.16869,85.89896 -58.43466,0.58435 0,-86.48331 -89.98938,-0.58434 0.58434,61.35639 c 0,0 -4.5847,-17.98159 -22.87958,-35.98159 -25.10849,-24.70381 -68.13485,-23.91961 -68.13485,-23.91961 z"
         style="fill:#015a9c;fill-opacity:1;fill-rule:evenodd;stroke:none;stroke-width:1.86990917;stroke-linecap:butt;stroke-linejoin:miter;stroke-miterlimit:4;stroke-dasharray:none;stroke-opacity:1" />
      <path
         inkscape:connector-curvature="0"
         id="path4150"
         d="m 1200.2262,576.198 0.8265,254.1152 173.5419,1.65281 1.2398,-69.41684 -81.8128,0.82631 0.4132,-26.85769 71.896,0.41325 -0.8265,-66.52447 -70.6564,0 -0.4133,-25.61813 81.8127,0.82631 -0.4133,-69.83004 z"
         style="fill:#015a9c;fill-opacity:1;fill-rule:evenodd;stroke:none;stroke-width:18.69909286px;stroke-linecap:butt;stroke-linejoin:miter;stroke-opacity:1" />
    </g>
  </g>
</svg>
