<?xml version="1.0" encoding="UTF-8" standalone="no"?>
<!-- Created with Inkscape (http://www.inkscape.org/) -->

<svg
   xmlns:dc="http://purl.org/dc/elements/1.1/"
   xmlns:cc="http://creativecommons.org/ns#"
   xmlns:rdf="http://www.w3.org/1999/02/22-rdf-syntax-ns#"
   xmlns:svg="http://www.w3.org/2000/svg"
   xmlns="http://www.w3.org/2000/svg"
   xmlns:sodipodi="http://sodipodi.sourceforge.net/DTD/sodipodi-0.dtd"
   xmlns:inkscape="http://www.inkscape.org/namespaces/inkscape"
   width="30"
   height="30"
   viewBox="0 0 30 30"
   id="svg2"
   version="1.1"
   inkscape:version="0.91 r13725"
   sodipodi:docname="menu.svg">
  <defs
     id="defs4" />
  <sodipodi:namedview
     id="base"
     pagecolor="#ffffff"
     bordercolor="#666666"
     borderopacity="1.0"
     inkscape:pageopacity="0.0"
     inkscape:pageshadow="2"
     inkscape:zoom="3.820155"
     inkscape:cx="30.77059"
     inkscape:cy="46.467588"
     inkscape:document-units="px"
     inkscape:current-layer="g4137"
     showgrid="false"
     fit-margin-top="0"
     fit-margin-left="0"
     fit-margin-right="0"
     fit-margin-bottom="0"
     inkscape:window-width="944"
     inkscape:window-height="1002"
     inkscape:window-x="0"
     inkscape:window-y="0"
     inkscape:window-maximized="0"
     units="px" />
  <metadata
     id="metadata7">
    <rdf:RDF>
      <cc:Work
         rdf:about="">
        <dc:format>image/svg+xml</dc:format>
        <dc:type
           rdf:resource="http://purl.org/dc/dcmitype/StillImage" />
        <dc:title></dc:title>
      </cc:Work>
    </rdf:RDF>
  </metadata>
  <g
     inkscape:label="Capa 1"
     inkscape:groupmode="layer"
     id="layer1"
     transform="translate(-377.45455,-576.89467)">
    <g
       id="g4137"
       transform="translate(374.45455,538.89467)">
	
	
	<g
   id="g4164"
   style="fill:#ffffff;fill-opacity:1"
   transform="matrix(0.45454545,0,0,0.46875,1.6363637,36.125)">
  <g
     style="fill:#ffffff;fill-opacity:1"
     id="g4139">
		<path
   style="fill:#ffffff;fill-opacity:1"
   inkscape:connector-curvature="0"
   d="m 60.5,21 -49,0 C 6.813,21 3,17.187 3,12.5 3,7.813 6.813,4 11.5,4 l 49,0 C 65.187,4 69,7.813 69,12.5 69,17.187 65.187,21 60.5,21 Z M 11.5,8 C 9.019,8 7,10.019 7,12.5 7,14.981 9.019,17 11.5,17 l 49,0 C 62.981,17 65,14.981 65,12.5 65,10.019 62.981,8 60.5,8 l -49,0 z"
   id="path4141" />

	</g>
  <g
     style="fill:#ffffff;fill-opacity:1"
     id="g4143">
		<path
   style="fill:#ffffff;fill-opacity:1"
   inkscape:connector-curvature="0"
   d="m 60.5,68 -49,0 C 6.813,68 3,64.187 3,59.5 3,54.813 6.813,51 11.5,51 l 49,0 c 4.687,0 8.5,3.813 8.5,8.5 0,4.687 -3.813,8.5 -8.5,8.5 z M 11.5,55 C 9.019,55 7,57.019 7,59.5 7,61.981 9.019,64 11.5,64 l 49,0 C 62.981,64 65,61.981 65,59.5 65,57.019 62.981,55 60.5,55 l -49,0 z"
   id="path4145" />

	</g>
  <g
     style="fill:#ffffff;fill-opacity:1"
     id="g4147">
		<path
   style="fill:#ffffff;fill-opacity:1"
   inkscape:connector-curvature="0"
   d="m 60.5,45 -49,0 C 6.813,45 3,41.187 3,36.5 3,31.813 6.813,28 11.5,28 l 49,0 c 4.687,0 8.5,3.813 8.5,8.5 0,4.687 -3.813,8.5 -8.5,8.5 z M 11.5,32 C 9.019,32 7,34.019 7,36.5 7,38.981 9.019,41 11.5,41 l 49,0 C 62.981,41 65,38.981 65,36.5 65,34.019 62.981,32 60.5,32 l -49,0 z"
   id="path4149" />

	</g>
</g>

</g>
  </g>
</svg>
