<?xml version="1.0" encoding="UTF-8" standalone="no"?>
<!-- Created with Inkscape (http://www.inkscape.org/) -->

<svg
   xmlns:dc="http://purl.org/dc/elements/1.1/"
   xmlns:cc="http://creativecommons.org/ns#"
   xmlns:rdf="http://www.w3.org/1999/02/22-rdf-syntax-ns#"
   xmlns:svg="http://www.w3.org/2000/svg"
   xmlns="http://www.w3.org/2000/svg"
   xmlns:sodipodi="http://sodipodi.sourceforge.net/DTD/sodipodi-0.dtd"
   xmlns:inkscape="http://www.inkscape.org/namespaces/inkscape"
   width="40px"
   height="40px"
   viewBox="0 0 46.000001 46.000001"
   id="svg3453"
   version="1.1"
   inkscape:version="0.91 r13725"
   sodipodi:docname="phone.svg">
  <defs
     id="defs3455" />
  <sodipodi:namedview
     id="base"
     pagecolor="#ffffff"
     bordercolor="#ffffff"
     borderopacity="1"
     inkscape:pageopacity="0.0"
     inkscape:pageshadow="2"
     inkscape:zoom="2.8"
     inkscape:cx="7.5465613"
     inkscape:cy="17.42316"
     inkscape:document-units="px"
     inkscape:current-layer="layer1"
     showgrid="false"
     fit-margin-top="0"
     fit-margin-left="0"
     fit-margin-right="0"
     fit-margin-bottom="0"
     inkscape:window-width="1366"
     inkscape:window-height="706"
     inkscape:window-x="-8"
     inkscape:window-y="-8"
     inkscape:window-maximized="1" />
  <metadata
     id="metadata3458">
    <rdf:RDF>
      <cc:Work
         rdf:about="">
        <dc:format>image/svg+xml</dc:format>
        <dc:type
           rdf:resource="http://purl.org/dc/dcmitype/StillImage" />
        <dc:title></dc:title>
      </cc:Work>
    </rdf:RDF>
  </metadata>
  <g
     inkscape:label="Capa 1"
     inkscape:groupmode="layer"
     id="layer1"
     transform="translate(333.71426,-515.79077)">
    <circle
       style="fill:#262626;fill-opacity:1;stroke:#ffffff;stroke-width:2;stroke-opacity:1"
       id="Oval_21_"
       cx="-310.71426"
       cy="538.79077"
       r="22" />
    <path
       inkscape:connector-curvature="0"
       id="Shape_21_"
       d="m -304.54285,539.20507 c -1.5,1.5 -1.5,2.9 -2.9,2.9 -1.5,0 -2.9,-1.5 -4.4,-2.9 -1.5,-1.5 -2.9,-2.9 -2.9,-4.4 0,-1.5 1.5,-1.5 2.9,-2.9 1.5,-1.5 -2.9,-5.9 -4.4,-5.9 -1.5,0 -4.4,4.4 -4.4,4.4 0,2.9 3,8.9 5.9,11.7 2.9,2.9 8.8,5.9 11.7,5.9 0,0 4.4,-2.9 4.4,-4.4 0,-1.5 -4.4,-5.9 -5.9,-4.4"
       style="fill:#f9f9f9" />
  </g>
</svg>
