<?xml version="1.0" encoding="UTF-8" standalone="no"?>
<!-- Generator: Adobe Illustrator 16.0.0, SVG Export Plug-In . SVG Version: 6.00 Build 0)  -->

<svg
   xmlns:dc="http://purl.org/dc/elements/1.1/"
   xmlns:cc="http://creativecommons.org/ns#"
   xmlns:rdf="http://www.w3.org/1999/02/22-rdf-syntax-ns#"
   xmlns:svg="http://www.w3.org/2000/svg"
   xmlns="http://www.w3.org/2000/svg"
   xmlns:sodipodi="http://sodipodi.sourceforge.net/DTD/sodipodi-0.dtd"
   xmlns:inkscape="http://www.inkscape.org/namespaces/inkscape"
   version="1.1"
   id="Layer_1"
   x="0px"
   y="0px"
   width="39.999996"
   height="39.999996"
   viewBox="0 0 39.999996 39.999996"
   enable-background="new 0 0 72 72"
   xml:space="preserve"
   inkscape:version="0.91 r13725"
   sodipodi:docname="search.svg"><metadata
   id="metadata15"><rdf:RDF><cc:Work
       rdf:about=""><dc:format>image/svg+xml</dc:format><dc:type
         rdf:resource="http://purl.org/dc/dcmitype/StillImage" /><dc:title></dc:title></cc:Work></rdf:RDF></metadata><defs
   id="defs13" /><sodipodi:namedview
   pagecolor="#ffffff"
   bordercolor="#666666"
   borderopacity="1"
   objecttolerance="10"
   gridtolerance="10"
   guidetolerance="10"
   inkscape:pageopacity="0"
   inkscape:pageshadow="2"
   inkscape:window-width="1920"
   inkscape:window-height="1018"
   id="namedview11"
   showgrid="false"
   fit-margin-top="0"
   fit-margin-left="0"
   fit-margin-right="0"
   fit-margin-bottom="0"
   inkscape:zoom="10.96404"
   inkscape:cx="22.270413"
   inkscape:cy="18.089386"
   inkscape:window-x="-8"
   inkscape:window-y="-8"
   inkscape:window-maximized="1"
   inkscape:current-layer="g3" />

<g
   id="g3"
   transform="matrix(0.36320176,0,0,0.36320176,7.2801161,6.2092208)">
	
	
	<g
   id="g4155"><g
     inkscape:label="Capa 1"
     id="layer1"
     transform="matrix(2.3941655,0,0,2.3941656,55.542949,-2160.0571)"><circle
       style="opacity:0.98999999;fill:#262626;fill-opacity:1;stroke:#ffffff;stroke-width:2;stroke-opacity:1"
       id="Oval_21_"
       cx="-8.5714283"
       cy="918.07648"
       r="22" /></g><path
     style="fill:#ffffff;fill-opacity:1"
     inkscape:connector-curvature="0"
     id="path5"
     d="m 29.637721,10.88312 c -6.262,0 -12.141,3.348 -15.342,8.738 -0.282,0.474 -0.126,1.089 0.349,1.37 0.16,0.096 0.336,0.141 0.51,0.141 0.342,0 0.674,-0.174 0.861,-0.489 2.843,-4.786 8.062,-7.76 13.622,-7.76 0.553,0 1,-0.447 1,-1 0,-0.553 -0.447,-1 -1,-1 z" /><path
     style="fill:#ffffff;fill-opacity:1"
     inkscape:connector-curvature="0"
     id="path7"
     d="m 13.473721,23.89712 c -0.537,-0.124 -1.075,0.208 -1.201,0.746 -0.299,1.276 -0.468,2.067 -0.468,3.487 0,0.553 0.448,1 1,1 0.553,0 1,-0.447 1,-1 0,-1.205 0.135,-1.834 0.415,-3.032 0.126,-0.538 -0.208,-1.075 -0.746,-1.201 z" /><path
     style="fill:#ffffff;fill-opacity:1;stroke:none;stroke-opacity:1"
     inkscape:connector-curvature="0"
     id="path9"
     d="m 68.119721,58.04412 -16.142,-16.141 c -0.393,-0.393 -0.788,-0.672 -1.17,-0.877 2.113,-3.62 3.33,-7.825 3.33,-12.311 0,-13.51 -10.99,-24.4999999 -24.5,-24.4999999 -13.509,0 -24.5000005,10.9899999 -24.5000005,24.4999999 0,13.51 10.9910005,24.499 24.5000005,24.499 4.81,0 9.296,-1.398 13.084,-3.801 0.205,0.339 0.462,0.666 0.77,0.974 l 16.142,16.143 c 1.136,1.133 2.64,1.756 4.244,1.756 1.603,0 3.108,-0.623 4.243,-1.756 1.133,-1.133 1.756,-2.641 1.756,-4.242 -0.001,-1.603 -0.624,-3.109 -1.757,-4.244 z M 9.1377205,28.71612 c 0,-11.304 9.1960005,-20.4999999 20.5000005,-20.4999999 11.305,0 20.5,9.1959999 20.5,20.4999999 0,11.305 -9.197,20.499 -20.5,20.499 -11.304,0 -20.5000005,-9.194 -20.5000005,-20.499 z m 56.1530005,34.986 c -0.757,0.754 -2.074,0.754 -2.83,0 l -16.141,-16.142 c -0.14,-0.139 -0.192,-0.232 -0.199,-0.232 0.003,-0.043 0.058,-0.455 1.201,-1.596 1.14,-1.143 1.552,-1.195 1.565,-1.203 0.026,0.008 0.119,0.06 0.263,0.203 l 16.14,16.141 c 0.379,0.379 0.586,0.881 0.586,1.416 -0.001,0.532 -0.208,1.034 -0.585,1.413 z" /></g>
</g></svg>