<?xml version="1.0" encoding="UTF-8" standalone="no"?>
<!-- Created with Inkscape (http://www.inkscape.org/) -->

<svg
   xmlns:dc="http://purl.org/dc/elements/1.1/"
   xmlns:cc="http://creativecommons.org/ns#"
   xmlns:rdf="http://www.w3.org/1999/02/22-rdf-syntax-ns#"
   xmlns:svg="http://www.w3.org/2000/svg"
   xmlns="http://www.w3.org/2000/svg"
   xmlns:sodipodi="http://sodipodi.sourceforge.net/DTD/sodipodi-0.dtd"
   xmlns:inkscape="http://www.inkscape.org/namespaces/inkscape"
   width="24.835556mm"
   height="18.062223mm"
   viewBox="0 0 88.000001 64.000002"
   id="svg4285"
   version="1.1"
   inkscape:version="0.91 r13725"
   sodipodi:docname="1clientes.svg">
  <defs
     id="defs4287">
    <marker
       inkscape:stockid="Arrow1Lstart"
       orient="auto"
       refY="0"
       refX="0"
       id="Arrow1Lstart"
       style="overflow:visible"
       inkscape:isstock="true">
      <path
         id="path6643"
         d="M 0,0 5,-5 -12.5,0 5,5 0,0 Z"
         style="fill:#000000;fill-opacity:1;fill-rule:evenodd;stroke:none;stroke-width:1pt;stroke-opacity:1"
         transform="matrix(0.8,0,0,0.8,10,0)"
         inkscape:connector-curvature="0" />
    </marker>
  </defs>
  <sodipodi:namedview
     id="base"
     pagecolor="#000000"
     bordercolor="#666666"
     borderopacity="1.0"
     inkscape:pageopacity="0"
     inkscape:pageshadow="2"
     inkscape:zoom="4.0256932"
     inkscape:cx="48.319472"
     inkscape:cy="23.795068"
     inkscape:document-units="px"
     inkscape:current-layer="_x37_7_Essential_Icons"
     showgrid="false"
     fit-margin-top="0"
     fit-margin-left="0"
     fit-margin-right="-2.7755576e-017"
     fit-margin-bottom="0"
     inkscape:showpageshadow="false"
     inkscape:window-width="1347"
     inkscape:window-height="1002"
     inkscape:window-x="557"
     inkscape:window-y="0"
     inkscape:window-maximized="0" />
  <metadata
     id="metadata4290">
    <rdf:RDF>
      <cc:Work
         rdf:about="">
        <dc:format>image/svg+xml</dc:format>
        <dc:type
           rdf:resource="http://purl.org/dc/dcmitype/StillImage" />
        <dc:title></dc:title>
      </cc:Work>
    </rdf:RDF>
  </metadata>
  <g
     inkscape:label="Capa 1"
     inkscape:groupmode="layer"
     id="layer1"
     transform="translate(-217.6119,332.41903)">
    <g
       id="g4872"
       transform="matrix(12.219015,0,0,10.171415,182.66925,296.93234)">
      <g
         id="g6631"
         transform="matrix(0.08183966,0,0,0.09831474,-17.641356,34.166482)">
        <g
           id="_x37_7_Essential_Icons"
           transform="translate(244.50264,-994.87282)">
	<path
   d="M 78.2,58.2 C 81.1,55.8 83,52.1 83,48 83,41.1 77.4,35 71,35 c -6.4,0 -12,6.1 -12,13 0,4.1 1.9,7.8 4.8,10.2 -1.3,0.5 -2.5,1 -3.7,1.7 -3.8,-4.5 -8.8,-8 -14.6,-9.7 C 49.9,47.1 53,41.8 53,36 53,26.9 45.5,19 37,19 28.5,19 21,26.9 21,36 21,41.8 24.1,47.1 28.5,50.2 16.1,53.9 7,65.4 7,79 c 0,1.1 0.9,2 2,2 l 82,0 c 1.1,0 2,-0.9 2,-2 C 93,69.4 86.8,61.2 78.2,58.2 Z M 63,48 c 0,-4.2 3.5,-9 8,-9 4.5,0 8,4.8 8,9 0,4.2 -3.5,9 -8,9 -4.5,0 -8,-4.8 -8,-9 z M 25,36 c 0,-6.1 5.1,-13 12,-13 6.9,0 12,6.9 12,13 0,6.1 -5.1,13 -12,13 C 30.1,49 25,42.1 25,36 Z M 11.1,77 C 12.1,63.6 23.4,53 37,53 50.7,53 61.9,63.6 62.9,77 l -51.8,0 z m 55.8,0 C 66.6,72 65,67.2 62.4,63.2 65,61.8 67.9,61 71,61 c 9.3,0 16.9,7 17.9,16 l -22,0 z"
   id="Users"
   inkscape:connector-curvature="0"
   style="opacity:1;fill:#ffffff;fill-opacity:1;stroke:#ffffff;stroke-width:2;stroke-miterlimit:4;stroke-dasharray:none;stroke-opacity:1" />

</g>
        <g
           id="Guides">
</g>
      </g>
    </g>
  </g>
</svg>
