<?xml version="1.0" encoding="UTF-8" standalone="no"?>
<svg
   xmlns:dc="http://purl.org/dc/elements/1.1/"
   xmlns:cc="http://creativecommons.org/ns#"
   xmlns:rdf="http://www.w3.org/1999/02/22-rdf-syntax-ns#"
   xmlns:svg="http://www.w3.org/2000/svg"
   xmlns="http://www.w3.org/2000/svg"
   version="1.1"
   id="svg4285"
   viewBox="0 0 30.000002 30.000001"
   height="8.4666672mm"
   width="8.4666672mm">
  <defs
     id="defs4287">
    <marker
       style="overflow:visible"
       id="Arrow1Lstart"
       refX="0"
       refY="0"
       orient="auto">
      <path
         transform="matrix(0.8,0,0,0.8,10,0)"
         style="fill:#000000;fill-opacity:1;fill-rule:evenodd;stroke:none;stroke-width:1pt;stroke-opacity:1"
         d="M 0,0 5,-5 -12.5,0 5,5 0,0 Z"
         id="path6643" />
    </marker>
  </defs>
  <metadata
     id="metadata4290">
    <rdf:RDF>
      <cc:Work
         rdf:about="">
        <dc:format>image/svg+xml</dc:format>
        <dc:type
           rdf:resource="http://purl.org/dc/dcmitype/StillImage" />
        <dc:title></dc:title>
      </cc:Work>
    </rdf:RDF>
  </metadata>
  <g
     transform="translate(2061.2598,231.88244)"
     id="layer1">
    <g
       transform="matrix(12.219015,0,0,10.171415,182.66925,296.93234)"
       id="g4872">
      <g
         transform="matrix(0.08183966,0,0,0.09831474,-17.641356,34.166482)"
         id="g6631">
        <g
           transform="translate(244.50264,-994.87282)"
           id="_x37_7_Essential_Icons">
	
<g
   transform="translate(-565.26168,424.91115)"
   id="g7068">
  <g
     transform="translate(-612.06849,-71.540473)"
     id="_x37_7_Essential_Icons-4">
	
<g
   transform="translate(-444.2595,434.99006)"
   id="g7091">
  <g
     transform="translate(-667.71108,-699.50685)"
     id="_x37_7_Essential_Icons-7">
	
<g
   style="fill:#ffffff;fill-opacity:1;stroke:none;stroke-opacity:1"
   transform="translate(15.429132,28.682703)"
   id="g7114">
  <rect
     style="fill:#ffffff;fill-opacity:1;stroke:none;stroke-opacity:1"
     x="9.6000004"
     y="4.6999998"
     transform="matrix(0.7071,0.7071,-0.7071,0.7071,14.1643,-4.1097)"
     width="4.9000001"
     height="20.6"
     id="rect7100" />
  <rect
     style="fill:#ffffff;fill-opacity:1;stroke:none;stroke-opacity:1"
     x="6.5999999"
     y="17.5"
     transform="matrix(0.7071,-0.7071,0.7071,0.7071,-9.1452,17.8357)"
     width="20.6"
     height="4.9000001"
     id="rect7102" />
  <path
     style="fill:#ffffff;fill-opacity:1;stroke:none;stroke-opacity:1"
     d="m 30.7,9.7 c 0.4,-0.4 0.4,-1 0,-1.4 l -7,-7 c -0.4,-0.4 -1,-0.4 -1.4,0 L 19,4.6 27.4,13 30.7,9.7 Z"
     id="path7104" />
  <path
     style="fill:#ffffff;fill-opacity:1;stroke:none;stroke-opacity:1"
     d="m 2,31 c 0,0 0.1,0 0.1,0 L 9.6,30.1 1.9,22.4 1,29.9 c 0,0.3 0.1,0.6 0.3,0.8 C 1.5,30.9 1.7,31 2,31 Z"
     id="path7106" />
</g>
</g>
  <g
     id="Guides-3">
</g>
</g>
</g>
  <g
     id="Guides-1">
</g>
</g>
</g>
        <g
           id="Guides">
</g>
      </g>
    </g>
  </g>
</svg>
