<?xml version="1.0" encoding="UTF-8" standalone="no"?>
<svg
   xmlns:dc="http://purl.org/dc/elements/1.1/"
   xmlns:cc="http://creativecommons.org/ns#"
   xmlns:rdf="http://www.w3.org/1999/02/22-rdf-syntax-ns#"
   xmlns:svg="http://www.w3.org/2000/svg"
   xmlns="http://www.w3.org/2000/svg"
   version="1.1"
   id="svg4285"
   viewBox="0 0 71.907606 71.999997"
   height="20.32mm"
   width="20.293924mm">
  <defs
     id="defs4287">
    <marker
       style="overflow:visible"
       id="Arrow1Lstart"
       refX="0"
       refY="0"
       orient="auto">
      <path
         transform="matrix(0.8,0,0,0.8,10,0)"
         style="fill:#000000;fill-opacity:1;fill-rule:evenodd;stroke:none;stroke-width:1pt;stroke-opacity:1"
         d="M 0,0 5,-5 -12.5,0 5,5 0,0 Z"
         id="path6643" />
    </marker>
  </defs>
  <metadata
     id="metadata4290">
    <rdf:RDF>
      <cc:Work
         rdf:about="">
        <dc:format>image/svg+xml</dc:format>
        <dc:type
           rdf:resource="http://purl.org/dc/dcmitype/StillImage" />
        <dc:title></dc:title>
      </cc:Work>
    </rdf:RDF>
  </metadata>
  <g
     transform="translate(1368.2559,26.10324)"
     id="layer1">
    <g
       transform="matrix(12.219015,0,0,10.171415,182.66925,296.93234)"
       id="g4872">
      <g
         transform="matrix(0.08183966,0,0,0.09831474,-17.641356,34.166482)"
         id="g6631">
        <g
           transform="translate(244.50264,-994.87282)"
           id="_x37_7_Essential_Icons">
	
<g
   transform="translate(-565.26168,424.91115)"
   id="g7068">
  <g
     transform="translate(-612.06849,-71.540473)"
     id="_x37_7_Essential_Icons-4">
	
<g
   transform="translate(-444.2595,434.99006)"
   id="g7091">
  <g
     transform="translate(-667.71108,-699.50685)"
     id="_x37_7_Essential_Icons-7">
	
<g
   transform="translate(-218.69531,491.72591)"
   id="g7325">
  <g
     style="fill:#ffffff;fill-opacity:1;stroke:#ffffff;stroke-opacity:1"
     transform="translate(914.12826,-270.26401)"
     id="_x37_7_Essential_Icons-1">
	<path
   style="fill:#ffffff;fill-opacity:1;stroke:#ffffff;stroke-opacity:1"
   id="Tag"
   d="m 84,14 -27.4,0 c -0.5,0 -1,0.2 -1.4,0.6 L 14.6,55.1 c -0.8,0.8 -0.8,2.1 0,2.8 L 42,85.4 c 0.8,0.8 2,0.8 2.8,0 L 85.3,44.9 c 0.4,-0.4 0.6,-0.9 0.6,-1.4 L 85.9,16 C 86,14.9 85.1,14 84,14 Z M 82,42.6 43.5,81.2 18.8,56.6 57.4,18 82,18 82,42.6 Z M 68,23.9 c -4.4,0 -8,3.6 -8,8 0,4.4 3.6,8 8,8 4.4,0 8,-3.6 8,-8 0,-4.4 -3.6,-8 -8,-8 z m 2.8,10.9 c -1.5,1.5 -4.2,1.5 -5.7,0 -1.6,-1.6 -1.6,-4.1 0,-5.7 1.6,-1.6 4.1,-1.6 5.7,0 1.6,1.6 1.6,4.1 0,5.7 z" />

</g>
  <g
     id="Guides-2">
</g>
  <path
     transform="translate(928.12831,-256.26401)"
     id="path7333"
     d="M 17.533895,54.467843 5.6785076,42.61148 24.735665,23.553715 43.792823,4.4959494 l 11.812662,0 11.812663,0 0,11.9009096 0,11.900909 -18.896847,19.013219 c -10.393265,10.45727 -18.94976,19.013218 -19.014434,19.013218 -0.06467,0 -5.452509,-5.335363 -11.972972,-11.856362 z M 56.05487,26.189997 c 2.881697,-0.750587 5.256109,-2.974923 6.112345,-5.726014 0.452365,-1.45345 0.443825,-3.627402 -0.02015,-5.129575 -1.875116,-6.070916 -9.700929,-7.9861451 -14.175928,-3.469307 -2.674423,2.699428 -3.267024,6.617807 -1.521737,10.061967 0.595611,1.17538 2.364997,2.943412 3.543134,3.540418 1.90727,0.966488 4.115323,1.229643 6.062335,0.722511 z"
     style="opacity:1;fill:#ffffff;fill-opacity:1;stroke:#ffffff;stroke-width:0.7025938;stroke-linecap:round;stroke-linejoin:miter;stroke-miterlimit:4;stroke-dasharray:none;stroke-opacity:1" />
</g>
</g>
  <g
     id="Guides-3">
</g>
</g>
</g>
  <g
     id="Guides-1">
</g>
</g>
</g>
        <g
           id="Guides">
</g>
      </g>
    </g>
  </g>
</svg>
