<?xml version="1.0" encoding="UTF-8" standalone="no"?>
<svg
   xmlns:dc="http://purl.org/dc/elements/1.1/"
   xmlns:cc="http://creativecommons.org/ns#"
   xmlns:rdf="http://www.w3.org/1999/02/22-rdf-syntax-ns#"
   xmlns:svg="http://www.w3.org/2000/svg"
   xmlns="http://www.w3.org/2000/svg"
   version="1.1"
   id="svg4285"
   viewBox="0 0 80 79.999997"
   height="22.577778mm"
   width="22.577778mm">
  <defs
     id="defs4287">
    <marker
       style="overflow:visible"
       id="Arrow1Lstart"
       refX="0"
       refY="0"
       orient="auto">
      <path
         transform="matrix(0.8,0,0,0.8,10,0)"
         style="fill:#000000;fill-opacity:1;fill-rule:evenodd;stroke:none;stroke-width:1pt;stroke-opacity:1"
         d="M 0,0 5,-5 -12.5,0 5,5 0,0 Z"
         id="path6643" />
    </marker>
  </defs>
  <metadata
     id="metadata4290">
    <rdf:RDF>
      <cc:Work
         rdf:about="">
        <dc:format>image/svg+xml</dc:format>
        <dc:type
           rdf:resource="http://purl.org/dc/dcmitype/StillImage" />
        <dc:title></dc:title>
      </cc:Work>
    </rdf:RDF>
  </metadata>
  <g
     transform="translate(955.7183,-12.951655)"
     id="layer1">
    <g
       transform="matrix(12.219015,0,0,10.171415,182.66925,296.93234)"
       id="g4872">
      <g
         transform="matrix(0.08183966,0,0,0.09831474,-17.641356,34.166482)"
         id="g6631">
        <g
           transform="translate(244.50264,-994.87282)"
           id="_x37_7_Essential_Icons">
	
<g
   transform="translate(-565.26168,424.91115)"
   id="g7068">
  <g
     transform="translate(-612.06849,-71.540473)"
     id="_x37_7_Essential_Icons-4">
	<path
   style="fill:#ffffff;fill-opacity:1;stroke:#ffffff;stroke-width:4;stroke-miterlimit:4;stroke-dasharray:none;stroke-opacity:1"
   id="Plus"
   d="m 72,50 c 0,1.1 -0.9,2 -2,2 l -18,0 0,18 c 0,1.1 -0.9,2 -2,2 -1.1,0 -2,-0.9 -2,-2 l 0,-18 -18,0 c -1.1,0 -2,-0.9 -2,-2 0,-1.1 0.9,-2 2,-2 l 18,0 0,-18 c 0,-1.1 0.9,-2 2,-2 1.1,0 2,0.9 2,2 l 0,18 18,0 c 1.1,0 2,0.9 2,2 z m 16,0 C 88,71 71,88 50,88 29,88 12,71 12,50 12,29 29,12 50,12 71,12 88,29 88,50 Z m -4,0 C 84,31.2 68.8,16 50,16 31.2,16 16,31.2 16,50 16,68.8 31.2,84 50,84 68.8,84 84,68.8 84,50 Z" />

</g>
  <g
     id="Guides-1">
</g>
</g>
</g>
        <g
           id="Guides">
</g>
      </g>
    </g>
  </g>
</svg>
