<?xml version="1.0" encoding="UTF-8" standalone="no"?>
<svg
   xmlns:osb="http://www.openswatchbook.org/uri/2009/osb"
   xmlns:dc="http://purl.org/dc/elements/1.1/"
   xmlns:cc="http://creativecommons.org/ns#"
   xmlns:rdf="http://www.w3.org/1999/02/22-rdf-syntax-ns#"
   xmlns:svg="http://www.w3.org/2000/svg"
   xmlns="http://www.w3.org/2000/svg"
   xmlns:sodipodi="http://sodipodi.sourceforge.net/DTD/sodipodi-0.dtd"
   xmlns:inkscape="http://www.inkscape.org/namespaces/inkscape"
   version="1.1"
   id="svg6803"
   viewBox="0 0 3254.361 67.423805"
   height="16.871983"
   width="160.97943"
   inkscape:version="0.91 r13725"
   sodipodi:docname="LogoLithonia.svg">
  <sodipodi:namedview
     pagecolor="#ffffff"
     bordercolor="#666666"
     borderopacity="1"
     objecttolerance="10"
     gridtolerance="10"
     guidetolerance="10"
     inkscape:pageopacity="0"
     inkscape:pageshadow="2"
     inkscape:window-width="1920"
     inkscape:window-height="1018"
     id="namedview21"
     showgrid="false"
     fit-margin-top="0"
     fit-margin-left="0"
     fit-margin-right="0"
     fit-margin-bottom="0"
     inkscape:zoom="5.6568543"
     inkscape:cx="79.28592"
     inkscape:cy="-1.2644393"
     inkscape:window-x="-8"
     inkscape:window-y="-8"
     inkscape:window-maximized="1"
     inkscape:current-layer="layer1-4" />
  <defs
     id="defs6805">
    <linearGradient
       osb:paint="solid"
       id="linearGradient6747">
      <stop
         id="stop6749"
         offset="0"
         style="stop-color:#00599c;stop-opacity:1;" />
    </linearGradient>
  </defs>
  <metadata
     id="metadata6808">
    <rdf:RDF>
      <cc:Work
         rdf:about="">
        <dc:format>image/svg+xml</dc:format>
        <dc:type
           rdf:resource="http://purl.org/dc/dcmitype/StillImage" />
        <dc:title></dc:title>
      </cc:Work>
    </rdf:RDF>
  </metadata>
  <g
     transform="translate(806.51047,-138.29723)"
     id="layer1">
    <g
       transform="translate(-212.64153,198.32927)"
       id="layer1-4">
      <g
         id="g4198">
        <text
           transform="scale(1.051759,0.95078816)"
           sodipodi:linespacing="125%"
           xml:space="preserve"
           style="font-style:normal;font-weight:normal;font-size:61.50924301px;line-height:125%;font-family:sans-serif;letter-spacing:0px;word-spacing:0px;fill:#00599c;fill-opacity:1;stroke:none;stroke-width:1px;stroke-linecap:butt;stroke-linejoin:miter;stroke-opacity:1"
           x="2476.5547"
           y="-48.160439"
           id="text6799"><tspan
             id="tspan6801"
             x="2476.5547"
             y="-48.160439">®</tspan></text>
        <path
           sodipodi:nodetypes="ccscc"
           inkscape:connector-curvature="0"
           id="path4160"
           d="m -446.56285,29.57128 181.38249,0.860813 c 0,0 16.24589,-52.891703 0.009,-105.131137 -21.92146,-70.529166 -63.27513,-91.938826 -63.27513,-91.938826 z"
           style="fill:#f15c22;fill-opacity:1;fill-rule:evenodd;stroke:none;stroke-width:2.02160048;stroke-linecap:butt;stroke-linejoin:miter;stroke-miterlimit:4;stroke-dasharray:none;stroke-opacity:1" />
        <path
           sodipodi:nodetypes="ccsc"
           inkscape:connector-curvature="0"
           id="path4162"
           d="m -555.63876,75.012036 161.48965,-267.893926 c 0,0 -110.20031,-30.20543 -174.67248,75.80126 -63.22574,103.957262 13.18283,192.092666 13.18283,192.092666 z"
           style="fill:#f15c22;fill-opacity:1;fill-rule:evenodd;stroke:none;stroke-width:2.02160048;stroke-linecap:butt;stroke-linejoin:miter;stroke-miterlimit:4;stroke-dasharray:none;stroke-opacity:1" />
        <path
           sodipodi:nodetypes="ccsc"
           inkscape:connector-curvature="0"
           id="path4164"
           d="m -531.15637,101.37769 210.92527,0.47083 c 0,0 -37.55203,42.37339 -103.57938,42.37339 -64.44411,0 -107.34589,-42.84422 -107.34589,-42.84422 z"
           style="fill:#f15c22;fill-opacity:1;fill-rule:evenodd;stroke:none;stroke-width:2.02160048;stroke-linecap:butt;stroke-linejoin:miter;stroke-miterlimit:4;stroke-dasharray:none;stroke-opacity:1" />
        <path
           inkscape:connector-curvature="0"
           id="path4166"
           d="m -128.52988,23.790542 83.562105,0.998671 -23.970016,41.614585 -134.498349,-0.665915 89.22168,-158.135454 54.59835,0.665915 z"
           style="fill:#005a9c;fill-opacity:1;fill-rule:evenodd;stroke:none;stroke-width:20.21600533px;stroke-linecap:butt;stroke-linejoin:miter;stroke-opacity:1" />
        <path
           inkscape:connector-curvature="0"
           id="path4168"
           d="m 3.3051339,66.070962 -48.9387429,-0.332958 89.887494,-157.469619 48.272929,0 z"
           style="fill:#005a9c;fill-opacity:1;fill-rule:evenodd;stroke:none;stroke-width:20.21600533px;stroke-linecap:butt;stroke-linejoin:miter;stroke-opacity:1" />
        <path
           inkscape:connector-curvature="0"
           id="path4170"
           d="m 113.83349,-92.397409 149.47961,0.665915 -26.63335,47.940012 -48.60583,-0.665915 -66.25044,113.191696 -49.93749,0.665915 65.58458,-115.522096 -48.605845,0 z"
           style="fill:#005a9c;fill-opacity:1;fill-rule:evenodd;stroke:none;stroke-width:20.21600533px;stroke-linecap:butt;stroke-linejoin:miter;stroke-opacity:1" />
        <path
           inkscape:connector-curvature="0"
           id="path4172"
           d="M 322.57228,63.074707 353.53351,4.4813663 275.2981,4.8143239 242.33934,63.740582 l -48.27293,-0.665915 90.55335,-155.139199 51.26918,0.332957 -36.95376,57.59461 81.89752,0.665713 31.29415,-58.926258 49.27168,1.331628 -90.22043,155.472117 z"
           style="fill:#005a9c;fill-opacity:1;fill-rule:evenodd;stroke:none;stroke-width:20.21600533px;stroke-linecap:butt;stroke-linejoin:miter;stroke-opacity:1" />
        <path
           sodipodi:nodetypes="ccsccaccaccscsccsccscscccsc"
           inkscape:connector-curvature="0"
           id="path4174"
           d="m 510.67021,-92.730306 133.83252,0.998671 c 0,0 9.69872,5.004706 11.65209,17.811052 0.81564,5.347347 -7.32418,25.801036 -7.32418,25.801036 l -51.935,97.877527 c 0,0 -9.79731,9.180624 -15.64709,12.317915 -7.515,4.030365 -24.30291,7.989992 -24.30291,7.989992 l -118.85127,0.332958 c 0,0 -16.93278,-4.675388 -20.64084,-11.652081 -3.91861,-7.372842 1.99754,-24.968747 1.99754,-24.968747 l 63.20942,-15.152565 c 0,0 2.66285,6.050536 5.36316,6.071691 l 62.54516,0.489992 c 0,0 6.11885,-2.480594 8.74221,-4.42661 2.87293,-2.131147 6.93381,-7.250971 6.93381,-7.250971 l 23.54796,-43.722334 c 0,0 3.60896,-5.294138 0.23372,-12.642132 -2.8629,-6.232601 -9.96715,-8.245027 -9.96715,-8.245027 l -50.61591,-0.430312 c 0,0 -3.04681,-1.227905 -10.48539,4.524189 -3.24221,2.50713 -7.55479,9.700707 -7.55479,9.700707 L 482.72639,7.4532668 c -3.68956,5.7586392 -0.24508,11.2116662 -0.24508,11.2116662 l -62.94957,15.108972 58.17979,-100.869651 c 0,0 4.29772,-8.845425 13.64958,-16.146462 10.40567,-8.123757 19.30913,-9.488098 19.3091,-9.488098 z"
           style="fill:#005a9c;fill-opacity:1;fill-rule:evenodd;stroke:none;stroke-width:2.02160048;stroke-linecap:butt;stroke-linejoin:miter;stroke-miterlimit:4;stroke-dasharray:none;stroke-opacity:1" />
        <path
           inkscape:connector-curvature="0"
           id="path4176"
           d="m 845.448,-92.602157 49.59239,0 -91.2879,157.937539 -45.80188,-0.315976 -30.63988,-99.184774 -58.12102,99.500649 -53.38289,-0.947524 90.97203,-156.674039 51.48763,1.263501 29.37639,98.553024 z"
           style="fill:#005a9c;fill-opacity:1;fill-rule:evenodd;stroke:none;stroke-width:20.21600533px;stroke-linecap:butt;stroke-linejoin:miter;stroke-opacity:1" />
        <path
           inkscape:connector-curvature="0"
           id="path4178"
           d="m 927.25965,-91.654531 50.85589,0.315976 -87.81327,156.358163 -53.38289,-0.315976 z"
           style="fill:#005a9c;fill-opacity:1;fill-rule:evenodd;stroke:none;stroke-width:20.21600533px;stroke-linecap:butt;stroke-linejoin:miter;stroke-opacity:1" />
        <path
           sodipodi:nodetypes="cccacsscccccccccccc"
           inkscape:connector-curvature="0"
           id="path4180"
           d="m 1079.5114,-90.391031 60.0163,0.947524 -0.4817,18.598308 c -2.4092,0.758682 -3.4549,-0.24457 -4.5723,0.828008 -1.0508,1.008704 -0.954,4.264517 -0.954,4.264517 l -0.1514,119.400575 c 0,1.584622 -3.5304,0.321563 -4.1536,1.847374 -1.4427,3.53219 -0.9004,10.155879 -0.9004,10.155879 l -37.7471,-1.2635 -0.6318,-22.427131 -0.237,-36.8784149 -0.3949,-45.5649801 -46.7495,45.4860113 47.232,0.1151049 0.15,36.7641388 -92.55188,-1.185259 -23.37476,26.849382 -61.27976,-1.895251 z"
           style="fill:#005a9c;fill-opacity:1;fill-rule:evenodd;stroke:none;stroke-width:2.02160048;stroke-linecap:butt;stroke-linejoin:miter;stroke-miterlimit:4;stroke-dasharray:none;stroke-opacity:1" />
        <path
           style="fill:#005a9c;fill-opacity:1;fill-rule:evenodd;stroke:none;stroke-width:20.21600533px;stroke-linecap:butt;stroke-linejoin:miter;stroke-opacity:1"
           d="m 1295.1503,25.577402 83.5621,0.998671 -23.97,41.614585 -134.4984,-0.665915 89.2217,-158.135454 54.5984,0.665915 z"
           id="path4182"
           inkscape:connector-curvature="0" />
        <path
           style="fill:#005a9c;fill-opacity:1;fill-rule:evenodd;stroke:none;stroke-width:20.21600533px;stroke-linecap:butt;stroke-linejoin:miter;stroke-opacity:1"
           d="m 1464.2473,-90.391031 50.8559,0.315976 -87.8133,156.358163 -53.3829,-0.315976 z"
           id="path4184"
           inkscape:connector-curvature="0" />
        <path
           sodipodi:nodetypes="cassaccccscccsccscsasssccscc"
           inkscape:connector-curvature="0"
           id="path4186"
           d="m 1477.8299,33.116124 c 0,0 -6.3742,10.23008 -5.6857,15.777881 0.6731,5.423745 3.6723,11.419336 9.1603,13.598502 6.5341,2.594564 143.9496,3.103759 150.0407,-0.631751 13.9837,-8.575842 23.9169,-22.883959 32.851,-36.641509 8.4194,-12.964997 18.9525,-42.32726 18.9525,-42.32726 l -79.6005,-2.842876 -14.8461,28.4287573 25.6208,0.5392325 c 0.088,0.087992 3.5305,-0.2641696 6.1816,2.3869432 2.7985,2.798537 0.085,5.39168 0.085,5.39168 l -11.3557,9.687024 -67.9131,-0.63175 c -3.0008,-0.202519 -4.5006,-4.939402 -4.7381,-9.476253 -0.2385,-4.555452 4.4222,-12.950878 4.4222,-12.950878 l 26.5335,-42.959011 c 0,0 5.1768,-8.574792 7.9385,-11.336468 3.1398,-3.139789 12.2775,-2.87791 12.2775,-2.87791 0,0 48.4242,-0.0406 57.4893,0 2.8184,0.01262 5.6546,2.164923 7.1072,4.580189 1.6065,2.67137 -0.9763,9.343013 0.7897,9.318314 l 45.1701,-0.63175 c 9.9268,-0.138836 12.9698,-12.67641 13.5827,-27.007319 0.9586,-22.416096 -9.1604,-22.900943 -9.1604,-22.900943 l -133.2993,-2.527001 c 0,0 -11.1116,-0.335919 -19.9001,4.738126 -8.7922,5.076188 -13.8985,15.162004 -13.8985,15.162004 z"
           style="fill:#005a9c;fill-opacity:1;fill-rule:evenodd;stroke:none;stroke-width:2.02160048;stroke-linecap:butt;stroke-linejoin:miter;stroke-miterlimit:4;stroke-dasharray:none;stroke-opacity:1" />
        <path
           style="fill:#005a9c;fill-opacity:1;fill-rule:evenodd;stroke:none;stroke-width:20.21600533px;stroke-linecap:butt;stroke-linejoin:miter;stroke-opacity:1"
           d="m 1798.5181,64.861566 30.9612,-58.5933404 -78.2354,0.3329576 -32.9588,58.9262578 -48.2729,-0.665915 90.5533,-155.139199 51.2692,0.332957 -36.9537,57.59461 81.8975,0.665713 31.2941,-58.926258 49.2717,1.331628 -90.2204,155.472117 z"
           id="path4188"
           inkscape:connector-curvature="0" />
        <path
           style="fill:#005a9c;fill-opacity:1;fill-rule:evenodd;stroke:none;stroke-width:20.21600533px;stroke-linecap:butt;stroke-linejoin:miter;stroke-opacity:1"
           d="m 1954.2986,-92.397409 149.4796,0.665915 -26.6334,47.940012 -48.6058,-0.665915 -66.2504,113.191696 -49.9375,0.665915 65.5845,-115.522096 -48.6058,0 z"
           id="path4190"
           inkscape:connector-curvature="0" />
        <path
           style="fill:#005a9c;fill-opacity:1;fill-rule:evenodd;stroke:none;stroke-width:20.21600533px;stroke-linecap:butt;stroke-linejoin:miter;stroke-opacity:1"
           d="m 2122.6685,-89.867672 50.8559,0.315976 -87.8133,156.358163 -53.3829,-0.315976 z"
           id="path4192"
           inkscape:connector-curvature="0" />
        <path
           style="fill:#005a9c;fill-opacity:1;fill-rule:evenodd;stroke:none;stroke-width:20.21600533px;stroke-linecap:butt;stroke-linejoin:miter;stroke-opacity:1"
           d="m 2346.4098,-90.815298 49.5924,0 -91.2879,157.937539 -45.8019,-0.315976 -30.6399,-99.184774 -58.121,99.500649 -53.3829,-0.947524 90.9721,-156.674039 51.4876,1.263501 29.3764,98.5530243 z"
           id="path4194"
           inkscape:connector-curvature="0" />
        <path
           style="fill:#005a9c;fill-opacity:1;fill-rule:evenodd;stroke:none;stroke-width:2.02160048;stroke-linecap:butt;stroke-linejoin:miter;stroke-miterlimit:4;stroke-dasharray:none;stroke-opacity:1"
           d="m 2362.3252,33.116124 c 0,0 -6.3742,10.23008 -5.6857,15.777881 0.6731,5.423745 3.6723,11.419336 9.1603,13.598502 6.5341,2.594564 143.9496,3.103759 150.0407,-0.631751 13.9837,-8.575842 23.9169,-22.883959 32.851,-36.641509 8.4194,-12.964997 18.9525,-42.32726 18.9525,-42.32726 l -79.6005,-2.842876 -14.8461,28.4287573 25.6208,0.5392325 c 0.088,0.087992 3.5305,-0.2641696 6.1816,2.3869432 2.7985,2.798537 0.085,5.39168 0.085,5.39168 l -11.3557,9.687024 -67.9131,-0.63175 c -3.0008,-0.202519 -4.5006,-4.939402 -4.7381,-9.476253 -0.2385,-4.555452 4.4222,-12.950878 4.4222,-12.950878 l 26.5335,-42.959011 c 0,0 5.1768,-8.574792 7.9385,-11.336468 3.1398,-3.139789 12.2775,-2.87791 12.2775,-2.87791 0,0 48.4242,-0.0406 57.4893,0 2.8184,0.01262 5.6546,2.164923 7.1072,4.580189 1.6065,2.67137 -0.9763,9.343013 0.7897,9.318314 l 45.1701,-0.63175 c 9.9268,-0.138836 12.9698,-12.67641 13.5827,-27.007319 0.9586,-22.416096 -9.1604,-22.900943 -9.1604,-22.900943 l -133.2993,-2.527001 c 0,0 -11.1116,-0.335919 -19.9001,4.738126 -8.7922,5.076188 -13.8985,15.162004 -13.8985,15.162004 z"
           id="path4196"
           inkscape:connector-curvature="0"
           sodipodi:nodetypes="cassaccccscccsccscsasssccscc" />
      </g>
    </g>
  </g>
</svg>
