<?xml version="1.0" encoding="UTF-8" standalone="no"?>
<!-- Created with Inkscape (http://www.inkscape.org/) -->

<svg
   xmlns:dc="http://purl.org/dc/elements/1.1/"
   xmlns:cc="http://creativecommons.org/ns#"
   xmlns:rdf="http://www.w3.org/1999/02/22-rdf-syntax-ns#"
   xmlns:svg="http://www.w3.org/2000/svg"
   xmlns="http://www.w3.org/2000/svg"
   xmlns:sodipodi="http://sodipodi.sourceforge.net/DTD/sodipodi-0.dtd"
   xmlns:inkscape="http://www.inkscape.org/namespaces/inkscape"
   width="9.0311117mm"
   height="8.4666672mm"
   viewBox="0 0 32.000002 30.000001"
   id="svg4285"
   version="1.1"
   inkscape:version="0.91 r13725"
   sodipodi:docname="1cotizaciones.svg">
  <defs
     id="defs4287">
    <marker
       inkscape:stockid="Arrow1Lstart"
       orient="auto"
       refY="0"
       refX="0"
       id="Arrow1Lstart"
       style="overflow:visible"
       inkscape:isstock="true">
      <path
         id="path6643"
         d="M 0,0 5,-5 -12.5,0 5,5 0,0 Z"
         style="fill:#000000;fill-opacity:1;fill-rule:evenodd;stroke:none;stroke-width:1pt;stroke-opacity:1"
         transform="matrix(0.8,0,0,0.8,10,0)"
         inkscape:connector-curvature="0" />
    </marker>
  </defs>
  <sodipodi:namedview
     id="base"
     pagecolor="#f00000"
     bordercolor="#666666"
     borderopacity="1.0"
     inkscape:pageopacity="0"
     inkscape:pageshadow="2"
     inkscape:zoom="16.102773"
     inkscape:cx="17.825315"
     inkscape:cy="12.96328"
     inkscape:document-units="px"
     inkscape:current-layer="_x37_7_Essential_Icons-7"
     showgrid="false"
     fit-margin-top="0"
     fit-margin-left="0"
     fit-margin-right="-2.7755576e-017"
     fit-margin-bottom="0"
     inkscape:showpageshadow="false"
     inkscape:window-width="1347"
     inkscape:window-height="1002"
     inkscape:window-x="557"
     inkscape:window-y="0"
     inkscape:window-maximized="0"
     showguides="true"
     inkscape:guide-bbox="true" />
  <metadata
     id="metadata4290">
    <rdf:RDF>
      <cc:Work
         rdf:about="">
        <dc:format>image/svg+xml</dc:format>
        <dc:type
           rdf:resource="http://purl.org/dc/dcmitype/StillImage" />
        <dc:title></dc:title>
      </cc:Work>
    </rdf:RDF>
  </metadata>
  <g
     inkscape:label="Capa 1"
     inkscape:groupmode="layer"
     id="layer1"
     transform="translate(2067.3201,234.51171)">
    <g
       id="g4872"
       transform="matrix(12.219015,0,0,10.171415,182.66925,296.93234)">
      <g
         id="g6631"
         transform="matrix(0.08183966,0,0,0.09831474,-17.641356,34.166482)">
        <g
           id="_x37_7_Essential_Icons"
           transform="translate(244.50264,-994.87282)">
	
<g
   id="g7068"
   transform="translate(-565.26168,424.91115)">
  <g
     id="_x37_7_Essential_Icons-4"
     transform="translate(-612.06849,-71.540473)">
	
<g
   id="g7091"
   transform="translate(-444.2595,434.99006)">
  <g
     id="_x37_7_Essential_Icons-7"
     transform="translate(-667.71108,-699.50685)">
	
<g
   id="g7226"
   transform="translate(10.368781,26.053434)"
   style="fill:#ffffff;fill-opacity:1">
  <path
     id="path7212"
     d="M 25.9,1.7 C 25.8,1.3 25.4,1 25,1 L 7,1 C 6.6,1 6.2,1.3 6.1,1.7 l -6,18 C 0,19.8 0,19.9 0,20 l 0,10 c 0,0.6 0.4,1 1,1 l 30,0 c 0.6,0 1,-0.4 1,-1 l 0,-10 c 0,-0.1 0,-0.2 -0.1,-0.3 l -6,-18 z M 21,19 c -0.6,0 -1,0.4 -1,1 l 0,3 -8,0 0,-3 c 0,-0.6 -0.4,-1 -1,-1 L 2.4,19 7.7,3 24.3,3 29.6,19 21,19 Z"
     inkscape:connector-curvature="0"
     style="fill:#ffffff;fill-opacity:1" />
  <path
     id="path7214"
     d="m 12,8 8,0 C 20.6,8 21,7.6 21,7 21,6.4 20.6,6 20,6 l -8,0 c -0.6,0 -1,0.4 -1,1 0,0.6 0.4,1 1,1 z"
     inkscape:connector-curvature="0"
     style="fill:#ffffff;fill-opacity:1" />
  <path
     id="path7216"
     d="m 10,12 12,0 c 0.6,0 1,-0.4 1,-1 0,-0.6 -0.4,-1 -1,-1 l -12,0 c -0.6,0 -1,0.4 -1,1 0,0.6 0.4,1 1,1 z"
     inkscape:connector-curvature="0"
     style="fill:#ffffff;fill-opacity:1" />
  <path
     id="path7218"
     d="m 8,14 c -0.6,0 -1,0.4 -1,1 0,0.6 0.4,1 1,1 l 16,0 c 0.6,0 1,-0.4 1,-1 0,-0.6 -0.4,-1 -1,-1 L 8,14 Z"
     inkscape:connector-curvature="0"
     style="fill:#ffffff;fill-opacity:1" />
</g>
</g>
  <g
     id="Guides-3">
</g>
</g>
</g>
  <g
     id="Guides-1">
</g>
</g>
</g>
        <g
           id="Guides">
</g>
      </g>
    </g>
  </g>
</svg>
